<svg xmlns="http://www.w3.org/2000/svg" xmlns:v="https://svgstorm.com"
viewBox = "0 0 450 111"
width="450"
height="111">
<g fill="None" fill-opacity="0.0" stroke="#000000" stroke-opacity="0.00" stroke-width="0.3"><path d="
M 0.00 47.00 
C 1.64 43.13 2.17 38.14 4.00 34.00
C 27.00 34.00 50.00 34.00 73.00 34.00
C 71.43 38.48 66.49 41.86 63.00 45.00
C 60.74 47.26 58.21 49.79 56.00 52.00
C 53.51 54.91 50.86 57.56 48.00 60.00
C 46.24 61.76 44.55 65.24 42.00 66.00
C 29.15 69.85 13.14 63.12 0.00 66.00
L 0.00 71.00
C 12.00 71.00 24.00 71.00 36.00 71.00
C 24.55 83.23 11.78 96.11 0.00 107.00
L 0.00 111.00
L 4.00 111.00
C 11.80 103.72 19.41 92.99 28.25 86.25 C 37.09 79.50 43.14 66.82 53.00 62.00
C 55.12 59.88 56.90 56.79 59.00 55.00
C 59.58 54.51 60.36 54.33 61.00 54.00
C 63.73 52.60 63.07 65.11 63.00 70.00 C 62.93 74.89 63.03 84.11 63.00 90.00 C 62.97 95.89 63.03 104.83 63.00 111.00
L 450.00 111.00
L 450.00 109.00
C 448.76 108.63 448.10 109.78 447.00 110.00
C 445.07 110.39 441.95 110.27 440.00 110.00
C 438.17 109.75 436.78 109.46 435.00 109.00
C 431.10 97.86 441.86 95.60 450.00 99.00
L 450.00 0.00
L 436.00 0.00
C 447.23 2.05 442.62 9.66 444.67 19.67 C 446.72 29.68 435.40 34.42 427.00 32.00 C 418.60 29.58 404.97 36.48 402.08 26.92 C 399.18 17.37 402.43 9.84 404.00 1.00
C 405.57 0.61 408.22 1.94 409.00 0.00
L 390.00 0.00
C 395.52 0.21 398.27 5.30 397.00 11.00
C 393.33 11.00 389.67 11.00 386.00 11.00
C 385.47 4.35 373.22 1.11 368.31 6.31 C 363.39 11.50 367.28 25.14 366.00 32.00
C 362.33 32.00 358.67 32.00 355.00 32.00
C 355.00 21.33 355.00 10.67 355.00 0.00
L 350.00 0.00
C 351.02 10.48 348.64 19.36 350.00 30.00 C 351.36 40.64 338.12 40.40 330.00 40.00 C 321.88 39.60 309.96 41.43 307.00 33.00
C 317.75 30.86 328.05 38.33 338.00 33.00
C 331.79 28.20 314.29 36.95 309.25 29.75 C 304.22 22.54 309.01 8.37 310.00 1.00
C 311.57 0.61 314.22 1.94 315.00 0.00
L 297.00 0.00
C 310.15 2.97 301.55 21.71 304.00 32.00
C 291.90 32.68 281.50 30.54 269.00 32.00 C 256.50 33.46 257.48 7.85 271.00 12.00
C 268.57 9.87 264.18 11.53 261.00 11.00
C 261.00 8.00 261.00 5.00 261.00 2.00
C 263.30 1.60 266.37 1.54 268.00 0.00
L 248.00 0.00
C 255.51 -0.30 257.59 8.70 256.98 15.02 C 256.36 21.34 258.15 31.18 249.98 31.98 C 241.80 32.77 233.57 30.81 225.00 32.00 C 216.43 33.19 212.48 27.37 214.00 19.00 C 215.52 10.63 210.48 2.08 221.00 1.00
C 220.96 1.00 221.00 0.00 221.00 0.00
L 201.00 0.00
C 207.26 0.33 209.99 4.82 210.00 11.00
C 206.00 11.00 202.00 11.00 198.00 11.00
C 194.14 -0.38 177.84 3.11 178.00 16.00 C 178.16 28.89 194.18 33.44 198.00 21.00
C 202.00 21.00 206.00 21.00 210.00 21.00
C 208.99 23.79 208.82 26.89 209.00 30.00
C 198.45 32.17 184.20 33.75 173.00 32.00 C 161.80 30.25 167.71 8.15 169.00 1.00
C 170.67 1.00 172.33 1.00 174.00 1.00
C 173.96 1.00 174.00 0.00 174.00 0.00
L 154.00 0.00
C 163.88 -0.49 162.17 10.68 162.00 18.00
C 152.00 18.00 142.00 18.00 132.00 18.00
C 129.74 33.06 156.77 30.54 161.00 21.00
C 165.11 37.54 139.34 31.28 128.00 32.00 C 116.66 32.72 115.65 1.78 127.00 1.00
C 126.99 1.00 127.00 0.00 127.00 0.00
L 0.00 0.00
L 0.00 47.00
M 105.00 2.00 
C 93.22 12.27 88.45 29.64 70.00 29.00 C 51.55 28.36 26.09 29.48 7.00 29.00
C 26.06 -6.36 70.64 2.93 105.00 2.00
M 109.00 7.00 
C 107.75 28.21 111.87 56.77 106.22 76.22 C 100.58 95.67 84.43 102.82 68.00 110.00
C 66.10 94.84 70.53 76.88 68.00 62.00 C 65.47 47.12 75.23 39.60 84.75 30.75 C 94.27 21.90 99.50 15.07 109.00 7.00
M 170.00 43.00 
C 170.98 55.37 168.69 65.40 170.00 78.00 C 171.31 90.60 156.89 92.00 147.00 91.00 C 137.11 90.00 122.20 93.36 119.00 83.00
C 131.37 80.81 143.41 88.56 155.00 83.00
C 146.06 78.57 122.76 87.05 120.01 74.99 C 117.25 62.94 116.20 44.16 131.00 44.00 C 145.81 43.85 155.76 43.23 170.00 43.00
M 226.00 82.00 
C 217.87 81.97 210.97 80.99 203.99 81.99 C 197.01 82.99 184.08 81.84 178.33 80.67 C 172.58 79.50 172.35 61.76 177.26 59.26 C 182.16 56.75 193.42 55.39 201.00 57.00 C 208.58 58.61 217.52 50.39 206.78 48.22 C 196.04 46.05 191.09 47.74 188.00 56.00
C 183.67 56.00 179.33 56.00 175.00 56.00
C 175.00 52.67 175.00 49.33 175.00 46.00
C 189.75 43.36 201.38 42.09 217.00 44.00 C 232.62 45.91 223.84 69.93 226.00 82.00
M 282.00 57.00 
C 277.80 59.10 272.61 57.50 268.00 58.00
C 272.77 45.11 239.07 45.61 245.33 57.67 C 251.59 69.73 273.26 51.49 280.25 64.75 C 287.23 78.02 268.97 84.05 258.00 82.00 C 247.03 79.95 226.86 85.01 231.00 67.00
C 235.33 67.00 239.67 67.00 244.00 67.00
C 241.03 76.34 261.79 80.36 265.74 73.74 C 269.69 67.13 251.93 61.95 244.00 65.00 C 236.07 68.05 224.10 52.74 232.31 46.31 C 240.51 39.87 252.71 44.39 262.00 43.00 C 271.29 41.61 283.77 45.81 282.00 57.00
M 300.00 80.00 
C 300.00 83.67 300.00 87.33 300.00 91.00
C 295.67 91.00 291.33 91.00 287.00 91.00
C 287.00 75.00 287.00 59.00 287.00 43.00
C 297.97 42.29 304.96 45.90 316.00 43.00 C 327.04 40.10 338.30 45.56 337.00 56.00 C 335.70 66.44 341.39 77.33 330.93 80.93 C 320.46 84.52 310.09 80.96 300.00 80.00
M 393.00 46.00 
C 393.00 58.00 393.00 70.00 393.00 82.00
C 385.08 81.64 377.82 81.06 370.99 81.99 C 364.16 82.93 351.46 82.19 346.00 81.00 C 340.54 79.81 340.21 62.53 344.77 59.77 C 349.33 57.02 360.34 55.17 368.00 57.00 C 375.66 58.83 384.69 50.95 374.33 48.67 C 363.97 46.40 357.77 46.93 356.00 56.00
C 351.67 56.00 347.33 56.00 343.00 56.00
C 343.00 52.67 343.00 49.33 343.00 46.00
C 359.11 42.66 376.98 41.55 393.00 46.00
M 449.00 57.00 
C 444.33 57.00 439.67 57.00 435.00 57.00
C 436.61 47.98 418.59 44.98 413.75 51.75 C 408.91 58.52 413.74 73.79 412.00 82.00
C 407.33 82.00 402.67 82.00 398.00 82.00
C 398.00 69.00 398.00 56.00 398.00 43.00
C 408.45 44.18 417.74 43.05 428.00 43.00 C 438.26 42.95 451.09 43.84 449.00 57.00
M 213.00 109.00 
C 211.12 110.33 207.56 110.35 205.00 110.00
C 201.79 109.56 198.91 109.50 200.00 105.00
C 198.84 107.83 198.78 111.47 194.00 110.00
C 194.00 105.00 194.00 100.00 194.00 95.00
C 199.95 93.07 199.21 99.03 199.00 103.00
C 199.97 91.59 224.04 99.44 213.00 109.00
M 254.00 109.00 
C 251.07 112.00 249.62 107.62 248.00 108.00
C 247.78 108.96 246.87 109.72 246.00 110.00
C 244.11 110.61 237.88 110.64 236.00 110.00
C 231.96 108.64 232.01 100.57 234.26 98.26 C 236.50 95.94 248.09 98.02 248.00 100.00
C 248.94 98.66 248.45 95.82 250.00 95.00
C 251.04 94.45 252.89 95.42 254.00 95.00
C 254.00 99.67 254.00 104.33 254.00 109.00
M 334.00 98.00 
C 337.51 98.57 342.31 96.77 345.00 99.00
C 342.24 101.16 337.51 99.45 334.00 100.00
C 334.17 102.52 333.33 105.19 335.00 107.00
C 335.24 107.26 335.74 107.89 336.00 108.00
C 336.42 108.18 337.53 107.88 338.00 108.00
C 339.12 107.29 340.35 106.63 340.00 105.00
C 344.75 102.51 347.25 109.80 342.00 110.00
C 340.22 110.55 336.87 110.16 335.00 110.00
C 327.58 109.38 329.81 105.60 328.00 100.00
C 327.12 103.14 328.14 105.58 328.00 109.00
C 323.45 109.67 315.21 111.99 313.00 107.00
C 312.75 107.70 311.82 109.54 311.00 110.00
C 307.06 112.22 299.96 108.67 296.00 109.00
C 296.00 105.33 296.00 101.67 296.00 98.00
C 302.87 96.24 298.00 112.35 307.00 106.00
C 308.25 104.19 306.06 100.02 307.00 98.00
C 308.33 98.00 309.67 98.00 311.00 98.00
C 311.10 97.97 312.96 99.91 313.00 100.00
C 312.73 99.96 317.62 96.56 320.00 98.00 C 322.38 99.44 327.25 97.20 329.00 97.00
C 329.42 96.86 331.59 93.07 334.00 95.00
C 334.00 96.00 334.00 97.00 334.00 98.00
M 384.00 98.00 
C 387.51 98.57 392.32 96.77 395.00 99.00
C 392.24 101.16 387.51 99.45 384.00 100.00
C 384.17 102.52 383.33 105.19 385.00 107.00
C 385.24 107.26 385.74 107.89 386.00 108.00
C 386.42 108.18 387.53 107.88 388.00 108.00
C 389.12 107.29 390.35 106.63 390.00 105.00
C 394.75 102.51 397.25 109.80 392.00 110.00
C 390.22 110.55 386.87 110.16 385.00 110.00
C 378.45 109.46 378.41 106.36 379.00 100.00
C 376.87 102.43 378.53 106.82 378.00 110.00
C 370.34 111.32 377.23 103.90 372.23 100.77 C 367.23 97.64 365.78 105.90 367.00 110.00
C 359.23 112.07 362.76 102.44 362.00 98.00
C 367.50 97.35 374.33 99.32 379.00 97.00
C 379.42 96.86 381.59 93.07 384.00 95.00
C 384.00 96.00 384.00 97.00 384.00 98.00
M 417.00 98.00 
C 424.16 96.69 429.30 98.19 428.00 106.00 C 426.70 113.81 417.71 108.35 412.00 110.00
C 412.00 105.00 412.00 100.00 412.00 95.00
C 414.35 94.84 417.92 94.45 417.00 98.00
M 434.00 95.00 
C 434.00 100.00 434.00 105.00 434.00 110.00
C 426.33 112.75 426.23 92.27 434.00 95.00
M 126.00 108.00 
C 126.31 107.76 127.00 108.00 127.00 108.00
C 131.40 107.68 138.99 103.88 137.00 98.00
C 146.47 94.02 158.82 102.55 149.00 110.00
C 147.29 110.53 143.79 110.22 142.00 110.00
C 139.43 109.68 136.07 109.97 137.00 106.00
C 135.65 107.04 134.99 109.49 133.00 110.00
C 130.07 110.96 121.42 110.88 120.00 108.00
C 116.38 100.67 122.09 97.93 128.00 98.00 C 133.91 98.07 140.44 101.91 131.00 103.00
C 129.35 95.61 121.36 103.60 126.00 108.00
M 169.00 110.00 
C 160.03 112.23 167.57 104.33 163.22 100.78 C 158.87 97.23 156.27 106.23 158.00 110.00
C 150.23 112.07 153.76 102.44 153.00 98.00
C 162.60 96.56 172.88 97.54 169.00 110.00
M 193.00 103.00 
C 189.15 104.83 186.94 98.08 183.33 100.33 C 179.72 102.59 183.04 109.20 187.00 108.00
C 187.98 105.50 190.46 104.55 193.00 105.00
C 192.20 116.02 169.84 109.53 178.00 98.00
C 182.92 99.15 194.08 94.57 193.00 103.00
M 232.00 110.00 
C 223.03 112.23 230.57 104.33 226.22 100.78 C 221.87 97.23 219.27 106.23 221.00 110.00
C 213.23 112.07 216.76 102.44 216.00 98.00
C 225.60 96.56 235.88 97.54 232.00 110.00
M 258.00 98.00 
C 259.24 97.78 260.74 98.00 262.00 98.00
C 271.12 98.00 272.14 100.76 271.00 110.00
C 267.63 108.87 258.21 111.85 255.78 109.22 C 253.35 106.59 254.77 98.28 258.00 98.00
M 295.00 102.00 
C 295.03 102.26 295.04 104.62 295.00 105.00
C 294.15 112.86 284.38 109.37 279.00 109.00
C 279.01 107.39 278.41 104.57 281.00 105.00
C 280.78 104.86 281.00 104.00 281.00 104.00
C 273.09 101.21 293.72 91.36 295.00 102.00
M 361.00 104.00 
C 360.87 110.19 357.07 110.91 351.00 110.00
C 349.19 109.73 347.77 109.47 346.00 109.00
C 339.20 96.86 362.08 92.57 361.00 104.00
M 406.00 110.00 
C 396.40 111.16 395.25 107.23 396.00 99.00
C 399.54 96.98 404.05 98.45 408.00 98.00
C 408.95 97.79 410.04 98.17 411.00 98.00
C 411.00 102.00 411.00 106.00 411.00 110.00
C 409.33 110.00 407.67 110.00 406.00 110.00 Z"/>
</g>
<g fill="None" fill-opacity="0.0" stroke="#FFFFFF" stroke-opacity="0.19" stroke-width="0.3"><path d="
M 127.00 1.00 
C 128.59 0.78 131.21 1.82 132.00 0.00
L 127.00 0.00
C 127.00 0.00 126.99 1.00 127.00 1.00 Z"/>
</g>
<g fill="None" fill-opacity="0.0" stroke="#FDFDFD" stroke-opacity="0.84" stroke-width="0.3"><path d="
M 127.00 1.00 
C 115.65 1.78 116.66 32.72 128.00 32.00 C 139.34 31.28 165.11 37.54 161.00 21.00
C 156.77 30.54 129.74 33.06 132.00 18.00
C 142.00 18.00 152.00 18.00 162.00 18.00
C 162.17 10.68 163.88 -0.49 154.00 0.00
L 132.00 0.00
C 131.21 1.82 128.59 0.78 127.00 1.00
M 151.00 13.00 
C 144.67 13.00 138.33 13.00 132.00 13.00
C 128.90 1.12 153.81 1.10 151.00 13.00 Z"/>
</g>
<g fill="None" fill-opacity="0.0" stroke="#FFFFFF" stroke-opacity="0.20" stroke-width="0.3"><path d="
M 174.00 1.00 
C 175.59 0.84 178.21 1.78 179.00 0.00
L 174.00 0.00
C 174.00 0.00 173.96 1.00 174.00 1.00 Z"/>
</g>
<g fill="None" fill-opacity="0.0" stroke="#FDFDFD" stroke-opacity="0.87" stroke-width="0.3"><path d="
M 174.00 1.00 
C 172.33 1.00 170.67 1.00 169.00 1.00
C 167.71 8.15 161.80 30.25 173.00 32.00 C 184.20 33.75 198.45 32.17 209.00 30.00
C 208.82 26.89 208.99 23.79 210.00 21.00
C 206.00 21.00 202.00 21.00 198.00 21.00
C 194.18 33.44 178.16 28.89 178.00 16.00 C 177.84 3.11 194.14 -0.38 198.00 11.00
C 202.00 11.00 206.00 11.00 210.00 11.00
C 209.99 4.82 207.26 0.33 201.00 0.00
L 179.00 0.00
C 178.21 1.78 175.59 0.84 174.00 1.00 Z"/>
</g>
<g fill="None" fill-opacity="0.0" stroke="#FEFEFE" stroke-opacity="0.22" stroke-width="0.3"><path d="
M 221.00 1.00 
C 222.59 0.84 225.21 1.78 226.00 0.00
L 221.00 0.00
C 221.00 0.00 220.96 1.00 221.00 1.00 Z"/>
</g>
<g fill="None" fill-opacity="0.0" stroke="#FDFDFD" stroke-opacity="0.88" stroke-width="0.3"><path d="
M 221.00 1.00 
C 210.48 2.08 215.52 10.63 214.00 19.00 C 212.48 27.37 216.43 33.19 225.00 32.00 C 233.57 30.81 241.80 32.77 249.98 31.98 C 258.15 31.18 256.36 21.34 256.98 15.02 C 257.59 8.70 255.51 -0.30 248.00 0.00
L 226.00 0.00
C 225.21 1.78 222.59 0.84 221.00 1.00
M 237.00 4.00 
C 250.91 5.17 246.80 31.92 233.00 28.00 C 219.20 24.08 222.94 2.82 237.00 4.00 Z"/>
</g>
<g fill="None" fill-opacity="0.0" stroke="#FDFDFD" stroke-opacity="0.85" stroke-width="0.3"><path d="
M 297.00 0.00 
L 277.00 0.00
C 276.26 1.39 272.68 1.65 272.00 0.00
L 268.00 0.00
C 266.37 1.54 263.30 1.60 261.00 2.00
C 261.00 5.00 261.00 8.00 261.00 11.00
C 264.18 11.53 268.57 9.87 271.00 12.00
C 257.48 7.85 256.50 33.46 269.00 32.00 C 281.50 30.54 291.90 32.68 304.00 32.00
C 301.55 21.71 310.15 2.97 297.00 0.00
M 272.00 11.00 
C 270.25 3.88 285.73 -0.52 290.69 5.31 C 295.66 11.14 276.99 12.58 272.00 11.00
M 292.00 16.00 
C 296.31 24.73 280.91 34.12 273.78 26.22 C 266.64 18.32 284.87 12.25 292.00 16.00 Z"/>
</g>
<g fill="None" fill-opacity="0.0" stroke="#FCFCFC" stroke-opacity="0.46" stroke-width="0.3"><path d="
M 277.00 0.00 
L 272.00 0.00
C 272.68 1.65 276.26 1.39 277.00 0.00 Z"/>
</g>
<g fill="None" fill-opacity="0.0" stroke="#FDFDFD" stroke-opacity="0.88" stroke-width="0.3"><path d="
M 350.00 0.00 
L 315.00 0.00
C 314.22 1.94 311.57 0.61 310.00 1.00
C 309.01 8.37 304.22 22.54 309.25 29.75 C 314.29 36.95 331.79 28.20 338.00 33.00
C 328.05 38.33 317.75 30.86 307.00 33.00
C 309.96 41.43 321.88 39.60 330.00 40.00 C 338.12 40.40 351.36 40.64 350.00 30.00 C 348.64 19.36 351.02 10.48 350.00 0.00
M 331.00 4.00 
C 344.91 5.17 340.80 31.86 327.00 28.00 C 313.20 24.14 316.93 2.82 331.00 4.00 Z"/>
</g>
<g fill="None" fill-opacity="0.0" stroke="#FDFDFD" stroke-opacity="0.91" stroke-width="0.3"><path d="
M 390.00 0.00 
L 355.00 0.00
C 355.00 10.67 355.00 21.33 355.00 32.00
C 358.67 32.00 362.33 32.00 366.00 32.00
C 367.28 25.14 363.39 11.50 368.31 6.31 C 373.22 1.11 385.47 4.35 386.00 11.00
C 389.67 11.00 393.33 11.00 397.00 11.00
C 398.27 5.30 395.52 0.21 390.00 0.00 Z"/>
</g>
<g fill="None" fill-opacity="0.0" stroke="#FDFDFD" stroke-opacity="0.88" stroke-width="0.3"><path d="
M 436.00 0.00 
L 434.00 0.00
C 432.97 1.43 428.96 1.69 428.00 0.00
L 409.00 0.00
C 408.22 1.94 405.57 0.61 404.00 1.00
C 402.43 9.84 399.18 17.37 402.08 26.92 C 404.97 36.48 418.60 29.58 427.00 32.00 C 435.40 34.42 446.72 29.68 444.67 19.67 C 442.62 9.66 447.23 2.05 436.00 0.00
M 425.00 4.00 
C 438.91 5.17 434.80 31.86 421.00 28.00 C 407.20 24.14 410.93 2.82 425.00 4.00 Z"/>
</g>
<g fill="None" fill-opacity="0.0" stroke="#FDFDFD" stroke-opacity="0.49" stroke-width="0.3"><path d="
M 434.00 0.00 
L 428.00 0.00
C 428.96 1.69 432.97 1.43 434.00 0.00 Z"/>
</g>
<g fill="None" fill-opacity="0.0" stroke="#30710E" stroke-opacity="0.93" stroke-width="0.3"><path d="
M 105.00 2.00 
C 70.64 2.93 26.06 -6.36 7.00 29.00
C 26.09 29.48 51.55 28.36 70.00 29.00 C 88.45 29.64 93.22 12.27 105.00 2.00 Z"/>
</g>
<g fill="None" fill-opacity="0.0" stroke="#000000" stroke-opacity="0.00" stroke-width="0.3"><path d="
M 151.00 13.00 
C 153.81 1.10 128.90 1.12 132.00 13.00
C 138.33 13.00 144.67 13.00 151.00 13.00 Z"/>
</g>
<g fill="None" fill-opacity="0.0" stroke="#000000" stroke-opacity="0.00" stroke-width="0.3"><path d="
M 237.00 4.00 
C 222.94 2.82 219.20 24.08 233.00 28.00 C 246.80 31.92 250.91 5.17 237.00 4.00 Z"/>
</g>
<g fill="None" fill-opacity="0.0" stroke="#000000" stroke-opacity="0.00" stroke-width="0.3"><path d="
M 272.00 11.00 
C 276.99 12.58 295.66 11.14 290.69 5.31 C 285.73 -0.52 270.25 3.88 272.00 11.00 Z"/>
</g>
<g fill="None" fill-opacity="0.0" stroke="#000000" stroke-opacity="0.00" stroke-width="0.3"><path d="
M 331.00 4.00 
C 316.93 2.82 313.20 24.14 327.00 28.00 C 340.80 31.86 344.91 5.17 331.00 4.00 Z"/>
</g>
<g fill="None" fill-opacity="0.0" stroke="#000000" stroke-opacity="0.00" stroke-width="0.3"><path d="
M 425.00 4.00 
C 410.93 2.82 407.20 24.14 421.00 28.00 C 434.80 31.86 438.91 5.17 425.00 4.00 Z"/>
</g>
<g fill="None" fill-opacity="0.0" stroke="#00A859" stroke-opacity="0.97" stroke-width="0.3"><path d="
M 109.00 7.00 
C 99.50 15.07 94.27 21.90 84.75 30.75 C 75.23 39.60 65.47 47.12 68.00 62.00 C 70.53 76.88 66.10 94.84 68.00 110.00
C 84.43 102.82 100.58 95.67 106.22 76.22 C 111.87 56.77 107.75 28.21 109.00 7.00 Z"/>
</g>
<g fill="None" fill-opacity="0.0" stroke="#000000" stroke-opacity="0.00" stroke-width="0.3"><path d="
M 292.00 16.00 
C 284.87 12.25 266.64 18.32 273.78 26.22 C 280.91 34.12 296.31 24.73 292.00 16.00 Z"/>
</g>
<g fill="None" fill-opacity="0.0" stroke="#44931D" stroke-opacity="0.95" stroke-width="0.3"><path d="
M 0.00 47.00 
L 0.00 66.00
C 13.14 63.12 29.15 69.85 42.00 66.00
C 43.37 65.49 46.69 61.12 48.00 60.00
C 50.86 57.56 53.51 54.91 56.00 52.00
C 58.19 49.44 60.49 47.15 63.00 45.00
C 66.49 41.86 71.43 38.48 73.00 34.00
C 50.00 34.00 27.00 34.00 4.00 34.00
C 2.17 38.14 1.64 43.13 0.00 47.00 Z"/>
</g>
<g fill="None" fill-opacity="0.0" stroke="#D2D2D4" stroke-opacity="0.87" stroke-width="0.3"><path d="
M 170.00 43.00 
C 155.76 43.23 145.81 43.85 131.00 44.00 C 116.20 44.16 117.25 62.94 120.01 74.99 C 122.76 87.05 146.06 78.57 155.00 83.00
C 143.41 88.56 131.37 80.81 119.00 83.00
C 122.20 93.36 137.11 90.00 147.00 91.00 C 156.89 92.00 171.31 90.60 170.00 78.00 C 168.69 65.40 170.98 55.37 170.00 43.00
M 150.00 49.00 
C 164.79 52.06 154.85 85.47 139.78 76.22 C 124.70 66.97 132.30 45.34 150.00 49.00 Z"/>
</g>
<g fill="None" fill-opacity="0.0" stroke="#D2D3D5" stroke-opacity="0.85" stroke-width="0.3"><path d="
M 226.00 82.00 
C 223.84 69.93 232.62 45.91 217.00 44.00 C 201.38 42.09 189.75 43.36 175.00 46.00
C 175.00 49.33 175.00 52.67 175.00 56.00
C 179.33 56.00 183.67 56.00 188.00 56.00
C 191.09 47.74 196.04 46.05 206.78 48.22 C 217.52 50.39 208.58 58.61 201.00 57.00 C 193.42 55.39 182.16 56.75 177.26 59.26 C 172.35 61.76 172.58 79.50 178.33 80.67 C 184.08 81.84 197.01 82.99 203.99 81.99 C 210.97 80.99 217.87 81.97 226.00 82.00
M 212.00 62.00 
C 215.03 72.47 209.10 75.31 201.00 76.00 C 192.90 76.69 185.20 73.22 189.78 65.78 C 194.35 58.33 205.15 65.01 212.00 62.00 Z"/>
</g>
<g fill="None" fill-opacity="0.0" stroke="#D2D3D5" stroke-opacity="0.85" stroke-width="0.3"><path d="
M 282.00 57.00 
C 283.77 45.81 271.29 41.61 262.00 43.00 C 252.71 44.39 240.51 39.87 232.31 46.31 C 224.10 52.74 236.07 68.05 244.00 65.00 C 251.93 61.95 269.69 67.13 265.74 73.74 C 261.79 80.36 241.03 76.34 244.00 67.00
C 239.67 67.00 235.33 67.00 231.00 67.00
C 226.86 85.01 247.03 79.95 258.00 82.00 C 268.97 84.05 287.23 78.02 280.25 64.75 C 273.26 51.49 251.59 69.73 245.33 57.67 C 239.07 45.61 272.77 45.11 268.00 58.00
C 272.61 57.50 277.80 59.10 282.00 57.00 Z"/>
</g>
<g fill="None" fill-opacity="0.0" stroke="#D1D2D4" stroke-opacity="0.90" stroke-width="0.3"><path d="
M 300.00 80.00 
C 310.09 80.96 320.46 84.52 330.93 80.93 C 341.39 77.33 335.70 66.44 337.00 56.00 C 338.30 45.56 327.04 40.10 316.00 43.00 C 304.96 45.90 297.97 42.29 287.00 43.00
C 287.00 59.00 287.00 75.00 287.00 91.00
C 291.33 91.00 295.67 91.00 300.00 91.00
C 300.00 87.33 300.00 83.67 300.00 80.00
M 300.00 74.00 
C 300.83 63.26 295.68 50.70 309.00 49.00 C 322.33 47.30 325.89 56.11 324.00 68.00 C 322.11 79.89 307.63 75.34 300.00 74.00 Z"/>
</g>
<g fill="None" fill-opacity="0.0" stroke="#D1D2D4" stroke-opacity="0.88" stroke-width="0.3"><path d="
M 393.00 46.00 
C 376.98 41.55 359.11 42.66 343.00 46.00
C 343.00 49.33 343.00 52.67 343.00 56.00
C 347.33 56.00 351.67 56.00 356.00 56.00
C 357.77 46.93 363.97 46.40 374.33 48.67 C 384.69 50.95 375.66 58.83 368.00 57.00 C 360.34 55.17 349.33 57.02 344.77 59.77 C 340.21 62.53 340.54 79.81 346.00 81.00 C 351.46 82.19 364.16 82.93 370.99 81.99 C 377.82 81.06 385.08 81.64 393.00 82.00
C 393.00 70.00 393.00 58.00 393.00 46.00
M 380.00 62.00 
C 383.25 72.86 376.82 74.82 369.00 76.00 C 361.18 77.18 352.19 72.64 357.31 65.31 C 362.42 57.97 373.42 65.42 380.00 62.00 Z"/>
</g>
<g fill="None" fill-opacity="0.0" stroke="#D1D2D5" stroke-opacity="0.85" stroke-width="0.3"><path d="
M 449.00 57.00 
C 451.09 43.84 438.26 42.95 428.00 43.00 C 417.74 43.05 408.45 44.18 398.00 43.00
C 398.00 56.00 398.00 69.00 398.00 82.00
C 402.67 82.00 407.33 82.00 412.00 82.00
C 413.74 73.79 408.91 58.52 413.75 51.75 C 418.59 44.98 436.61 47.98 435.00 57.00
C 439.67 57.00 444.33 57.00 449.00 57.00 Z"/>
</g>
<g fill="None" fill-opacity="0.0" stroke="#7F8000" stroke-opacity="0.01" stroke-width="0.3"><path d="
M 56.00 52.00 
C 58.21 49.79 60.74 47.26 63.00 45.00
C 60.49 47.15 58.19 49.44 56.00 52.00 Z"/>
</g>
<g fill="None" fill-opacity="0.0" stroke="#000000" stroke-opacity="0.00" stroke-width="0.3"><path d="
M 150.00 49.00 
C 132.30 45.34 124.70 66.97 139.78 76.22 C 154.85 85.47 164.79 52.06 150.00 49.00 Z"/>
</g>
<g fill="None" fill-opacity="0.0" stroke="#000000" stroke-opacity="0.00" stroke-width="0.3"><path d="
M 300.00 74.00 
C 307.63 75.34 322.11 79.89 324.00 68.00 C 325.89 56.11 322.33 47.30 309.00 49.00 C 295.68 50.70 300.83 63.26 300.00 74.00 Z"/>
</g>
<g fill="None" fill-opacity="0.0" stroke="#7CD22E" stroke-opacity="0.95" stroke-width="0.3"><path d="
M 61.00 54.00 
C 62.23 54.09 55.48 61.28 54.00 62.00
C 53.60 62.20 53.00 62.00 53.00 62.00
C 43.14 66.82 37.09 79.50 28.25 86.25 C 19.41 92.99 11.80 103.72 4.00 111.00
L 63.00 111.00
C 63.03 104.83 62.97 95.89 63.00 90.00 C 63.03 84.11 62.93 74.89 63.00 70.00 C 63.07 65.11 63.73 52.60 61.00 54.00 Z"/>
</g>
<g fill="None" fill-opacity="0.0" stroke="#8BCE28" stroke-opacity="0.49" stroke-width="0.3"><path d="
M 59.00 55.00 
C 57.53 56.86 55.51 59.84 54.00 62.00
C 55.48 61.28 62.23 54.09 61.00 54.00
C 60.36 54.33 59.58 54.51 59.00 55.00 Z"/>
</g>
<g fill="None" fill-opacity="0.0" stroke="#8FE02A" stroke-opacity="0.01" stroke-width="0.3"><path d="
M 53.00 62.00 
C 53.00 62.00 53.60 62.20 54.00 62.00
C 55.51 59.84 57.53 56.86 59.00 55.00
C 56.90 56.79 55.12 59.88 53.00 62.00 Z"/>
</g>
<g fill="None" fill-opacity="0.0" stroke="#00FF00" stroke-opacity="0.00" stroke-width="0.3"><path d="
M 42.00 66.00 
C 44.55 65.24 46.24 61.76 48.00 60.00
C 46.69 61.12 43.37 65.49 42.00 66.00 Z"/>
</g>
<g fill="None" fill-opacity="0.0" stroke="#000000" stroke-opacity="0.00" stroke-width="0.3"><path d="
M 212.00 62.00 
C 205.15 65.01 194.35 58.33 189.78 65.78 C 185.20 73.22 192.90 76.69 201.00 76.00 C 209.10 75.31 215.03 72.47 212.00 62.00 Z"/>
</g>
<g fill="None" fill-opacity="0.0" stroke="#000000" stroke-opacity="0.00" stroke-width="0.3"><path d="
M 380.00 62.00 
C 373.42 65.42 362.42 57.97 357.31 65.31 C 352.19 72.64 361.18 77.18 369.00 76.00 C 376.82 74.82 383.25 72.86 380.00 62.00 Z"/>
</g>
<g fill="None" fill-opacity="0.0" stroke="#4E980E" stroke-opacity="0.97" stroke-width="0.3"><path d="
M 0.00 107.00 
C 11.78 96.11 24.55 83.23 36.00 71.00
C 24.00 71.00 12.00 71.00 0.00 71.00
L 0.00 107.00 Z"/>
</g>
<g fill="None" fill-opacity="0.0" stroke="#97999B" stroke-opacity="0.67" stroke-width="0.3"><path d="
M 205.00 110.00 
C 205.25 109.88 206.05 108.30 206.00 108.00
C 205.77 106.73 204.11 106.30 204.00 105.00
C 207.33 105.00 210.67 105.00 214.00 105.00
C 214.82 108.15 210.51 105.83 210.00 108.00
C 210.83 108.17 211.50 109.29 213.00 109.00
C 224.04 99.44 199.97 91.59 199.00 103.00
C 199.21 99.03 199.95 93.07 194.00 95.00
C 194.00 100.00 194.00 105.00 194.00 110.00
C 198.78 111.47 198.84 107.83 200.00 105.00
C 198.91 109.50 201.79 109.56 205.00 110.00
M 211.00 102.00 
C 209.67 103.47 205.26 103.71 204.00 102.00
C 205.23 98.56 209.15 100.26 211.00 102.00 Z"/>
</g>
<g fill="None" fill-opacity="0.0" stroke="#94949A" stroke-opacity="0.09" stroke-width="0.3"><path d="
M 248.00 100.00 
C 246.75 101.77 246.99 102.19 244.00 102.00
C 245.42 102.45 247.29 103.79 249.00 102.00
C 248.89 103.00 249.47 104.73 248.00 105.00
C 247.78 105.95 248.22 107.05 248.00 108.00
C 249.62 107.62 251.07 112.00 254.00 109.00
C 254.00 109.04 253.00 109.00 253.00 109.00
C 252.01 109.12 250.99 108.91 250.00 109.00
C 250.00 105.67 250.00 102.33 250.00 99.00
C 250.00 97.67 250.00 96.33 250.00 95.00
C 248.45 95.82 248.94 98.66 248.00 100.00 Z"/>
</g>
<g fill="None" fill-opacity="0.0" stroke="#969898" stroke-opacity="0.58" stroke-width="0.3"><path d="
M 250.00 99.00 
C 250.18 99.38 252.66 98.69 253.00 99.00
C 253.00 102.33 253.00 105.67 253.00 109.00
C 253.00 109.00 254.00 109.04 254.00 109.00
C 254.00 104.33 254.00 99.67 254.00 95.00
C 252.89 95.42 251.04 94.45 250.00 95.00
C 250.00 96.33 250.00 97.67 250.00 99.00 Z"/>
</g>
<g fill="None" fill-opacity="0.0" stroke="#949898" stroke-opacity="0.28" stroke-width="0.3"><path d="
M 329.00 97.00 
C 332.23 96.62 331.50 97.59 334.00 98.00
C 334.00 97.00 334.00 96.00 334.00 95.00
C 331.59 93.07 329.42 96.86 329.00 97.00 Z"/>
</g>
<g fill="None" fill-opacity="0.0" stroke="#949898" stroke-opacity="0.28" stroke-width="0.3"><path d="
M 379.00 97.00 
C 382.23 96.62 381.50 97.59 384.00 98.00
C 384.00 97.00 384.00 96.00 384.00 95.00
C 381.59 93.07 379.42 96.86 379.00 97.00 Z"/>
</g>
<g fill="None" fill-opacity="0.0" stroke="#969899" stroke-opacity="0.69" stroke-width="0.3"><path d="
M 417.00 98.00 
C 417.92 94.45 414.35 94.84 412.00 95.00
C 412.00 100.00 412.00 105.00 412.00 110.00
C 417.71 108.35 426.70 113.81 428.00 106.00 C 429.30 98.19 424.16 96.69 417.00 98.00
M 417.00 107.00 
C 414.97 91.57 432.32 108.75 417.00 107.00 Z"/>
</g>
<g fill="None" fill-opacity="0.0" stroke="#96989A" stroke-opacity="0.67" stroke-width="0.3"><path d="
M 434.00 95.00 
C 426.23 92.27 426.33 112.75 434.00 110.00
C 434.00 105.00 434.00 100.00 434.00 95.00 Z"/>
</g>
<g fill="None" fill-opacity="0.0" stroke="#96989A" stroke-opacity="0.70" stroke-width="0.3"><path d="
M 329.00 97.00 
C 327.25 97.20 322.38 99.44 320.00 98.00 C 317.62 96.56 312.73 99.96 313.00 100.00
C 313.79 101.85 313.63 105.20 313.00 107.00
C 315.21 111.99 323.45 109.67 328.00 109.00
C 328.14 105.58 327.12 103.14 328.00 100.00
C 329.81 105.60 327.58 109.38 335.00 110.00
C 335.26 109.88 336.04 108.30 336.00 108.00
C 335.74 107.89 335.24 107.26 335.00 107.00
C 332.46 107.66 331.86 101.50 334.00 100.00
C 337.51 99.45 342.24 101.16 345.00 99.00
C 342.31 96.77 337.51 98.57 334.00 98.00
C 331.50 97.59 332.23 96.62 329.00 97.00
M 324.00 102.00 
C 322.54 103.67 317.78 103.73 317.00 101.00
C 319.31 98.94 322.07 100.39 324.00 102.00
M 323.00 106.00 
C 316.89 109.94 316.07 102.22 323.00 106.00 Z"/>
</g>
<g fill="None" fill-opacity="0.0" stroke="#96989A" stroke-opacity="0.74" stroke-width="0.3"><path d="
M 379.00 97.00 
C 374.33 99.32 367.50 97.35 362.00 98.00
C 362.76 102.44 359.23 112.07 367.00 110.00
C 365.78 105.90 367.23 97.64 372.23 100.77 C 377.23 103.90 370.34 111.32 378.00 110.00
C 378.53 106.82 376.87 102.43 379.00 100.00
C 378.41 106.36 378.45 109.46 385.00 110.00
C 385.26 109.88 386.04 108.30 386.00 108.00
C 385.74 107.89 385.24 107.26 385.00 107.00
C 382.46 107.66 381.86 101.50 384.00 100.00
C 387.51 99.45 392.24 101.16 395.00 99.00
C 392.32 96.77 387.51 98.57 384.00 98.00
C 381.50 97.59 382.23 96.62 379.00 97.00 Z"/>
</g>
<g fill="None" fill-opacity="0.0" stroke="#999B9C" stroke-opacity="0.67" stroke-width="0.3"><path d="
M 120.00 108.00 
C 121.35 109.93 124.80 108.94 126.00 108.00
C 121.36 103.60 129.35 95.61 131.00 103.00
C 140.44 101.91 133.91 98.07 128.00 98.00 C 122.09 97.93 116.38 100.67 120.00 108.00 Z"/>
</g>
<g fill="None" fill-opacity="0.0" stroke="#959799" stroke-opacity="0.72" stroke-width="0.3"><path d="
M 127.00 108.00 
C 127.78 108.37 132.46 110.12 133.00 110.00
C 134.99 109.49 135.65 107.04 137.00 106.00
C 136.07 109.97 139.43 109.68 142.00 110.00
C 142.41 109.80 142.73 108.13 143.00 108.00
C 142.72 105.21 138.77 100.80 144.03 100.03 C 149.28 99.26 148.35 106.90 146.00 108.00
C 146.37 108.07 148.73 109.99 149.00 110.00
C 158.82 102.55 146.47 94.02 137.00 98.00
C 138.99 103.88 131.40 107.68 127.00 108.00 Z"/>
</g>
<g fill="None" fill-opacity="0.0" stroke="#969899" stroke-opacity="0.68" stroke-width="0.3"><path d="
M 169.00 110.00 
C 172.88 97.54 162.60 96.56 153.00 98.00
C 153.76 102.44 150.23 112.07 158.00 110.00
C 156.27 106.23 158.87 97.23 163.22 100.78 C 167.57 104.33 160.03 112.23 169.00 110.00 Z"/>
</g>
<g fill="None" fill-opacity="0.0" stroke="#959799" stroke-opacity="0.64" stroke-width="0.3"><path d="
M 193.00 103.00 
C 194.08 94.57 182.92 99.15 178.00 98.00
C 169.84 109.53 192.20 116.02 193.00 105.00
C 190.46 104.55 187.98 105.50 187.00 108.00
C 183.04 109.20 179.72 102.59 183.33 100.33 C 186.94 98.08 189.15 104.83 193.00 103.00 Z"/>
</g>
<g fill="None" fill-opacity="0.0" stroke="#959899" stroke-opacity="0.68" stroke-width="0.3"><path d="
M 232.00 110.00 
C 235.88 97.54 225.60 96.56 216.00 98.00
C 216.76 102.44 213.23 112.07 221.00 110.00
C 219.27 106.23 221.87 97.23 226.22 100.78 C 230.57 104.33 223.03 112.23 232.00 110.00 Z"/>
</g>
<g fill="None" fill-opacity="0.0" stroke="#959799" stroke-opacity="0.73" stroke-width="0.3"><path d="
M 236.00 110.00 
C 236.57 110.05 239.40 108.16 240.00 108.00
C 237.53 107.03 236.82 104.97 237.94 101.92 C 239.05 98.86 242.51 101.53 244.00 102.00
C 246.99 102.19 246.75 101.77 248.00 100.00
C 248.09 98.02 236.50 95.94 234.26 98.26 C 232.01 100.57 231.96 108.64 236.00 110.00 Z"/>
</g>
<g fill="None" fill-opacity="0.0" stroke="#969799" stroke-opacity="0.66" stroke-width="0.3"><path d="
M 262.00 98.00 
C 262.65 98.13 264.49 99.33 265.00 100.00
C 266.81 102.37 265.32 100.76 262.99 101.99 C 260.65 103.22 260.37 99.46 261.00 100.00
C 260.61 99.92 258.29 98.01 258.00 98.00
C 254.77 98.28 253.35 106.59 255.78 109.22 C 258.21 111.85 267.63 108.87 271.00 110.00
C 272.14 100.76 271.12 98.00 262.00 98.00
M 266.00 104.00 
C 267.14 108.01 262.36 106.85 260.00 107.00
C 259.63 103.56 263.70 103.89 266.00 104.00 Z"/>
</g>
<g fill="None" fill-opacity="0.0" stroke="#959799" stroke-opacity="0.49" stroke-width="0.3"><path d="
M 261.00 100.00 
C 262.22 100.25 263.84 99.58 265.00 100.00
C 264.49 99.33 262.65 98.13 262.00 98.00
C 260.74 98.00 259.24 97.78 258.00 98.00
C 258.29 98.01 260.61 99.92 261.00 100.00 Z"/>
</g>
<g fill="None" fill-opacity="0.0" stroke="#959799" stroke-opacity="0.69" stroke-width="0.3"><path d="
M 281.00 104.00 
C 282.51 103.82 284.03 103.20 285.00 103.00
C 284.93 103.06 287.05 96.41 290.00 102.00
C 290.26 101.75 291.00 102.00 291.00 102.00
C 291.90 102.00 294.24 101.58 295.00 102.00
C 293.72 91.36 273.09 101.21 281.00 104.00 Z"/>
</g>
<g fill="None" fill-opacity="0.0" stroke="#959799" stroke-opacity="0.79" stroke-width="0.3"><path d="
M 311.00 110.00 
C 311.00 106.33 311.00 102.67 311.00 99.00
C 310.00 98.95 309.00 99.04 308.00 99.00
C 307.48 101.19 309.14 104.62 307.00 106.00
C 298.00 112.35 302.87 96.24 296.00 98.00
C 296.00 101.67 296.00 105.33 296.00 109.00
C 299.96 108.67 307.06 112.22 311.00 110.00 Z"/>
</g>
<g fill="None" fill-opacity="0.0" stroke="#969899" stroke-opacity="0.61" stroke-width="0.3"><path d="
M 307.00 106.00 
C 309.14 104.62 307.48 101.19 308.00 99.00
C 309.00 99.04 310.00 98.95 311.00 99.00
C 311.00 98.50 311.00 98.00 311.00 98.00
C 309.67 98.00 308.33 98.00 307.00 98.00
C 306.06 100.02 308.25 104.19 307.00 106.00 Z"/>
</g>
<g fill="None" fill-opacity="0.0" stroke="#777777" stroke-opacity="0.07" stroke-width="0.3"><path d="
M 311.00 99.00 
C 311.00 102.67 311.00 106.33 311.00 110.00
C 311.82 109.54 312.75 107.70 313.00 107.00
C 313.63 105.20 313.79 101.85 313.00 100.00
C 312.96 99.91 311.10 97.97 311.00 98.00
C 311.00 98.00 311.00 98.50 311.00 99.00 Z"/>
</g>
<g fill="None" fill-opacity="0.0" stroke="#959799" stroke-opacity="0.75" stroke-width="0.3"><path d="
M 351.00 110.00 
C 351.32 109.86 351.97 108.33 352.00 108.00
C 352.00 107.96 351.01 105.01 351.00 105.00
C 350.65 104.95 350.00 104.34 350.00 104.00
C 350.00 103.67 350.65 103.08 351.00 103.00
C 351.91 99.65 357.06 98.50 357.00 103.00
C 356.99 103.50 357.00 104.00 357.00 104.00
C 358.33 104.00 359.67 104.00 361.00 104.00
C 362.08 92.57 339.20 96.86 346.00 109.00
C 347.77 109.47 349.19 109.73 351.00 110.00 Z"/>
</g>
<g fill="None" fill-opacity="0.0" stroke="#96989A" stroke-opacity="0.65" stroke-width="0.3"><path d="
M 406.00 110.00 
C 409.49 108.08 406.28 104.07 406.00 102.00
C 404.45 102.83 401.66 101.37 400.00 102.00
C 400.77 99.29 403.89 100.14 406.00 100.00
C 406.35 99.87 407.74 98.06 408.00 98.00
C 404.05 98.45 399.54 96.98 396.00 99.00
C 395.25 107.23 396.40 111.16 406.00 110.00
M 407.00 104.00 
C 408.14 108.01 403.36 106.85 401.00 107.00
C 399.86 102.98 404.64 104.15 407.00 104.00 Z"/>
</g>
<g fill="None" fill-opacity="0.0" stroke="#959799" stroke-opacity="0.84" stroke-width="0.3"><path d="
M 406.00 100.00 
C 406.51 98.46 406.18 103.32 406.00 102.00
C 406.28 104.07 409.49 108.08 406.00 110.00
C 407.67 110.00 409.33 110.00 411.00 110.00
C 411.00 106.00 411.00 102.00 411.00 98.00
C 410.04 98.17 408.95 97.79 408.00 98.00
C 407.74 98.06 406.35 99.87 406.00 100.00 Z"/>
</g>
<g fill="None" fill-opacity="0.0" stroke="#97999B" stroke-opacity="0.72" stroke-width="0.3"><path d="
M 440.00 110.00 
C 440.40 109.89 441.69 108.08 442.00 108.00
C 442.03 107.85 438.71 106.18 440.00 105.00
C 442.84 105.59 446.98 103.78 449.00 106.00
C 449.37 105.78 450.00 106.00 450.00 106.00
L 450.00 99.00
C 441.86 95.60 431.10 97.86 435.00 109.00
C 436.78 109.46 438.17 109.75 440.00 110.00
M 446.00 103.00 
C 435.85 105.56 443.72 95.38 446.00 103.00 Z"/>
</g>
<g fill="None" fill-opacity="0.0" stroke="#96989A" stroke-opacity="1.00" stroke-width="0.3"><path d="
M 253.00 109.00 
C 253.00 105.67 253.00 102.33 253.00 99.00
C 252.66 98.69 250.18 99.38 250.00 99.00
C 250.00 102.33 250.00 105.67 250.00 109.00
C 250.99 108.91 252.01 109.12 253.00 109.00 Z"/>
</g>
<g fill="None" fill-opacity="0.0" stroke="#000000" stroke-opacity="0.00" stroke-width="0.3"><path d="
M 143.00 108.00 
C 143.47 107.78 145.48 107.90 146.00 108.00
C 148.35 106.90 149.28 99.26 144.03 100.03 C 138.77 100.80 142.72 105.21 143.00 108.00 Z"/>
</g>
<g fill="None" fill-opacity="0.0" stroke="#000000" stroke-opacity="0.00" stroke-width="0.3"><path d="
M 211.00 102.00 
C 209.15 100.26 205.23 98.56 204.00 102.00
C 205.26 103.71 209.67 103.47 211.00 102.00 Z"/>
</g>
<g fill="None" fill-opacity="0.0" stroke="#000000" stroke-opacity="0.00" stroke-width="0.3"><path d="
M 240.00 108.00 
C 240.47 107.88 241.53 107.88 242.00 108.00
C 243.59 106.80 246.85 105.99 248.00 105.00
C 249.47 104.73 248.89 103.00 249.00 102.00
C 247.29 103.79 245.42 102.45 244.00 102.00
C 242.51 101.53 239.05 98.86 237.94 101.92 C 236.82 104.97 237.53 107.03 240.00 108.00 Z"/>
</g>
<g fill="None" fill-opacity="0.0" stroke="#000000" stroke-opacity="0.00" stroke-width="0.3"><path d="
M 265.00 100.00 
C 263.84 99.58 262.22 100.25 261.00 100.00
C 260.37 99.46 260.65 103.22 262.99 101.99 C 265.32 100.76 266.81 102.37 265.00 100.00 Z"/>
</g>
<g fill="None" fill-opacity="0.0" stroke="#000000" stroke-opacity="0.00" stroke-width="0.3"><path d="
M 285.00 103.00 
C 287.12 102.57 288.41 103.53 290.00 102.00
C 287.05 96.41 284.93 103.06 285.00 103.00 Z"/>
</g>
<g fill="None" fill-opacity="0.0" stroke="#000000" stroke-opacity="0.00" stroke-width="0.3"><path d="
M 324.00 102.00 
C 322.07 100.39 319.31 98.94 317.00 101.00
C 317.78 103.73 322.54 103.67 324.00 102.00 Z"/>
</g>
<g fill="None" fill-opacity="0.0" stroke="#959798" stroke-opacity="0.31" stroke-width="0.3"><path d="
M 335.00 107.00 
C 333.33 105.19 334.17 102.52 334.00 100.00
C 331.86 101.50 332.46 107.66 335.00 107.00 Z"/>
</g>
<g fill="None" fill-opacity="0.0" stroke="#000000" stroke-opacity="0.00" stroke-width="0.3"><path d="
M 351.00 103.00 
C 352.48 102.65 355.51 102.69 357.00 103.00
C 357.06 98.50 351.91 99.65 351.00 103.00 Z"/>
</g>
<g fill="None" fill-opacity="0.0" stroke="#959798" stroke-opacity="0.31" stroke-width="0.3"><path d="
M 385.00 107.00 
C 383.33 105.19 384.17 102.52 384.00 100.00
C 381.86 101.50 382.46 107.66 385.00 107.00 Z"/>
</g>
<g fill="None" fill-opacity="0.0" stroke="#000000" stroke-opacity="0.00" stroke-width="0.3"><path d="
M 406.00 102.00 
C 406.18 103.32 406.51 98.46 406.00 100.00
C 403.89 100.14 400.77 99.29 400.00 102.00
C 401.66 101.37 404.45 102.83 406.00 102.00 Z"/>
</g>
<g fill="None" fill-opacity="0.0" stroke="#000000" stroke-opacity="0.00" stroke-width="0.3"><path d="
M 417.00 107.00 
C 432.32 108.75 414.97 91.57 417.00 107.00 Z"/>
</g>
<g fill="None" fill-opacity="0.0" stroke="#000000" stroke-opacity="0.00" stroke-width="0.3"><path d="
M 446.00 103.00 
C 443.72 95.38 435.85 105.56 446.00 103.00 Z"/>
</g>
<g fill="None" fill-opacity="0.0" stroke="#959899" stroke-opacity="0.42" stroke-width="0.3"><path d="
M 285.00 103.00 
C 284.03 103.20 282.51 103.82 281.00 104.00
C 281.00 104.00 280.78 104.86 281.00 105.00
C 281.53 105.33 283.27 105.70 284.00 106.00
C 284.11 106.01 288.30 105.17 289.00 105.00
C 289.89 104.78 290.51 103.91 292.00 104.00
C 291.68 103.74 291.23 102.11 291.00 102.00
C 291.00 102.00 290.26 101.75 290.00 102.00
C 288.41 103.53 287.12 102.57 285.00 103.00 Z"/>
</g>
<g fill="None" fill-opacity="0.0" stroke="#94999B" stroke-opacity="0.19" stroke-width="0.3"><path d="
M 292.00 104.00 
C 292.66 104.04 294.54 105.16 295.00 105.00
C 295.04 104.62 295.03 102.26 295.00 102.00
C 294.24 101.58 291.90 102.00 291.00 102.00
C 291.23 102.11 291.68 103.74 292.00 104.00 Z"/>
</g>
<g fill="None" fill-opacity="0.0" stroke="#959899" stroke-opacity="0.91" stroke-width="0.3"><path d="
M 350.00 104.00 
C 351.51 103.27 355.28 104.00 357.00 104.00
C 357.00 104.00 356.99 103.50 357.00 103.00
C 355.51 102.69 352.48 102.65 351.00 103.00
C 350.65 103.08 350.00 103.67 350.00 104.00 Z"/>
</g>
<g fill="None" fill-opacity="0.0" stroke="#000000" stroke-opacity="0.00" stroke-width="0.3"><path d="
M 266.00 104.00 
C 263.70 103.89 259.63 103.56 260.00 107.00
C 262.36 106.85 267.14 108.01 266.00 104.00 Z"/>
</g>
<g fill="None" fill-opacity="0.0" stroke="#97999B" stroke-opacity="0.66" stroke-width="0.3"><path d="
M 289.00 105.00 
C 287.75 106.24 288.15 107.67 284.00 106.00
C 283.27 105.70 281.53 105.33 281.00 105.00
C 278.41 104.57 279.01 107.39 279.00 109.00
C 284.38 109.37 294.15 112.86 295.00 105.00
C 294.54 105.16 292.66 104.04 292.00 104.00
C 290.51 103.91 289.89 104.78 289.00 105.00 Z"/>
</g>
<g fill="None" fill-opacity="0.0" stroke="#989A9C" stroke-opacity="0.47" stroke-width="0.3"><path d="
M 351.00 105.00 
C 353.87 105.41 357.96 103.90 360.00 106.00
C 358.06 107.77 354.82 108.20 352.00 108.00
C 351.97 108.33 351.32 109.86 351.00 110.00
C 357.07 110.91 360.87 110.19 361.00 104.00
C 359.67 104.00 358.33 104.00 357.00 104.00
C 355.28 104.00 351.51 103.27 350.00 104.00
C 350.00 104.34 350.65 104.95 351.00 105.00 Z"/>
</g>
<g fill="None" fill-opacity="0.0" stroke="#000000" stroke-opacity="0.00" stroke-width="0.3"><path d="
M 407.00 104.00 
C 404.64 104.15 399.86 102.98 401.00 107.00
C 403.36 106.85 408.14 108.01 407.00 104.00 Z"/>
</g>
<g fill="None" fill-opacity="0.0" stroke="#000000" stroke-opacity="0.00" stroke-width="0.3"><path d="
M 206.00 108.00 
C 206.61 107.67 209.30 107.86 210.00 108.00
C 210.51 105.83 214.82 108.15 214.00 105.00
C 210.67 105.00 207.33 105.00 204.00 105.00
C 204.11 106.30 205.77 106.73 206.00 108.00 Z"/>
</g>
<g fill="None" fill-opacity="0.0" stroke="#949698" stroke-opacity="0.70" stroke-width="0.3"><path d="
M 242.00 108.00 
C 242.42 108.11 245.78 110.04 246.00 110.00
C 246.87 109.72 247.78 108.96 248.00 108.00
C 248.22 107.05 247.78 105.95 248.00 105.00
C 246.85 105.99 243.59 106.80 242.00 108.00 Z"/>
</g>
<g fill="None" fill-opacity="0.0" stroke="#000000" stroke-opacity="0.00" stroke-width="0.3"><path d="
M 284.00 106.00 
C 288.15 107.67 287.75 106.24 289.00 105.00
C 288.30 105.17 284.11 106.01 284.00 106.00 Z"/>
</g>
<g fill="None" fill-opacity="0.0" stroke="#000000" stroke-opacity="0.00" stroke-width="0.3"><path d="
M 323.00 106.00 
C 316.07 102.22 316.89 109.94 323.00 106.00 Z"/>
</g>
<g fill="None" fill-opacity="0.0" stroke="#949798" stroke-opacity="0.65" stroke-width="0.3"><path d="
M 338.00 108.00 
C 338.52 108.14 341.63 110.03 342.00 110.00
C 347.25 109.80 344.75 102.51 340.00 105.00
C 340.35 106.63 339.12 107.29 338.00 108.00 Z"/>
</g>
<g fill="None" fill-opacity="0.0" stroke="#000000" stroke-opacity="0.00" stroke-width="0.3"><path d="
M 352.00 108.00 
C 354.82 108.20 358.06 107.77 360.00 106.00
C 357.96 103.90 353.87 105.41 351.00 105.00
C 351.01 105.01 352.00 107.96 352.00 108.00 Z"/>
</g>
<g fill="None" fill-opacity="0.0" stroke="#949798" stroke-opacity="0.65" stroke-width="0.3"><path d="
M 388.00 108.00 
C 388.52 108.14 391.63 110.03 392.00 110.00
C 397.25 109.80 394.75 102.51 390.00 105.00
C 390.35 106.63 389.12 107.29 388.00 108.00 Z"/>
</g>
<g fill="None" fill-opacity="0.0" stroke="#000000" stroke-opacity="0.00" stroke-width="0.3"><path d="
M 442.00 108.00 
C 442.91 107.75 444.06 108.13 445.00 108.00
C 446.43 107.80 447.98 106.62 449.00 106.00
C 446.98 103.78 442.84 105.59 440.00 105.00
C 438.71 106.18 442.03 107.85 442.00 108.00 Z"/>
</g>
<g fill="None" fill-opacity="0.0" stroke="#959799" stroke-opacity="0.58" stroke-width="0.3"><path d="
M 445.00 108.00 
C 445.27 108.07 446.85 109.98 447.00 110.00
C 448.10 109.78 448.76 108.63 450.00 109.00
L 450.00 106.00
C 450.00 106.00 449.37 105.78 449.00 106.00
C 447.98 106.62 446.43 107.80 445.00 108.00 Z"/>
</g>
<g fill="None" fill-opacity="0.0" stroke="#959698" stroke-opacity="0.24" stroke-width="0.3"><path d="
M 133.00 110.00 
C 132.46 110.12 127.78 108.37 127.00 108.00
C 127.00 108.00 126.31 107.76 126.00 108.00
C 124.80 108.94 121.35 109.93 120.00 108.00
C 121.42 110.88 130.07 110.96 133.00 110.00 Z"/>
</g>
<g fill="None" fill-opacity="0.0" stroke="#959899" stroke-opacity="0.41" stroke-width="0.3"><path d="
M 142.00 110.00 
C 143.79 110.22 147.29 110.53 149.00 110.00
C 148.73 109.99 146.37 108.07 146.00 108.00
C 145.48 107.90 143.47 107.78 143.00 108.00
C 142.73 108.13 142.41 109.80 142.00 110.00 Z"/>
</g>
<g fill="None" fill-opacity="0.0" stroke="#969799" stroke-opacity="0.41" stroke-width="0.3"><path d="
M 205.00 110.00 
C 207.56 110.35 211.12 110.33 213.00 109.00
C 211.50 109.29 210.83 108.17 210.00 108.00
C 209.30 107.86 206.61 107.67 206.00 108.00
C 206.05 108.30 205.25 109.88 205.00 110.00 Z"/>
</g>
<g fill="None" fill-opacity="0.0" stroke="#959799" stroke-opacity="0.32" stroke-width="0.3"><path d="
M 236.00 110.00 
C 237.88 110.64 244.11 110.61 246.00 110.00
C 245.78 110.04 242.42 108.11 242.00 108.00
C 241.53 107.88 240.47 107.88 240.00 108.00
C 239.40 108.16 236.57 110.05 236.00 110.00 Z"/>
</g>
<g fill="None" fill-opacity="0.0" stroke="#959799" stroke-opacity="0.36" stroke-width="0.3"><path d="
M 335.00 110.00 
C 336.87 110.16 340.22 110.55 342.00 110.00
C 341.63 110.03 338.52 108.14 338.00 108.00
C 337.53 107.88 336.42 108.18 336.00 108.00
C 336.04 108.30 335.26 109.88 335.00 110.00 Z"/>
</g>
<g fill="None" fill-opacity="0.0" stroke="#959799" stroke-opacity="0.36" stroke-width="0.3"><path d="
M 385.00 110.00 
C 386.87 110.16 390.22 110.55 392.00 110.00
C 391.63 110.03 388.52 108.14 388.00 108.00
C 387.53 107.88 386.42 108.18 386.00 108.00
C 386.04 108.30 385.26 109.88 385.00 110.00 Z"/>
</g>
<g fill="None" fill-opacity="0.0" stroke="#96979A" stroke-opacity="0.40" stroke-width="0.3"><path d="
M 440.00 110.00 
C 441.95 110.27 445.07 110.39 447.00 110.00
C 446.85 109.98 445.27 108.07 445.00 108.00
C 444.06 108.13 442.91 107.75 442.00 108.00
C 441.69 108.08 440.40 109.89 440.00 110.00 Z"/>
</g>
<g fill="#000000" fill-opacity="0.00" stroke="None">
<path d="
M 0.00 47.00 
C 1.64 43.13 2.17 38.14 4.00 34.00
C 27.00 34.00 50.00 34.00 73.00 34.00
C 71.43 38.48 66.49 41.86 63.00 45.00
C 60.74 47.26 58.21 49.79 56.00 52.00
C 53.51 54.91 50.86 57.56 48.00 60.00
C 46.24 61.76 44.55 65.24 42.00 66.00
C 29.15 69.85 13.14 63.12 0.00 66.00
L 0.00 71.00
C 12.00 71.00 24.00 71.00 36.00 71.00
C 24.55 83.23 11.78 96.11 0.00 107.00
L 0.00 111.00
L 4.00 111.00
C 11.80 103.72 19.41 92.99 28.25 86.25 C 37.09 79.50 43.14 66.82 53.00 62.00
C 55.12 59.88 56.90 56.79 59.00 55.00
C 59.58 54.51 60.36 54.33 61.00 54.00
C 63.73 52.60 63.07 65.11 63.00 70.00 C 62.93 74.89 63.03 84.11 63.00 90.00 C 62.97 95.89 63.03 104.83 63.00 111.00
L 450.00 111.00
L 450.00 109.00
C 448.76 108.63 448.10 109.78 447.00 110.00
C 445.07 110.39 441.95 110.27 440.00 110.00
C 438.17 109.75 436.78 109.46 435.00 109.00
C 431.10 97.86 441.86 95.60 450.00 99.00
L 450.00 0.00
L 436.00 0.00
C 447.23 2.05 442.62 9.66 444.67 19.67 C 446.72 29.68 435.40 34.42 427.00 32.00 C 418.60 29.58 404.97 36.48 402.08 26.92 C 399.18 17.37 402.43 9.84 404.00 1.00
C 405.57 0.61 408.22 1.94 409.00 0.00
L 390.00 0.00
C 395.52 0.21 398.27 5.30 397.00 11.00
C 393.33 11.00 389.67 11.00 386.00 11.00
C 385.47 4.35 373.22 1.11 368.31 6.31 C 363.39 11.50 367.28 25.14 366.00 32.00
C 362.33 32.00 358.67 32.00 355.00 32.00
C 355.00 21.33 355.00 10.67 355.00 0.00
L 350.00 0.00
C 351.02 10.48 348.64 19.36 350.00 30.00 C 351.36 40.64 338.12 40.40 330.00 40.00 C 321.88 39.60 309.96 41.43 307.00 33.00
C 317.75 30.86 328.05 38.33 338.00 33.00
C 331.79 28.20 314.29 36.95 309.25 29.75 C 304.22 22.54 309.01 8.37 310.00 1.00
C 311.57 0.61 314.22 1.94 315.00 0.00
L 297.00 0.00
C 310.15 2.97 301.55 21.71 304.00 32.00
C 291.90 32.68 281.50 30.54 269.00 32.00 C 256.50 33.46 257.48 7.85 271.00 12.00
C 268.57 9.87 264.18 11.53 261.00 11.00
C 261.00 8.00 261.00 5.00 261.00 2.00
C 263.30 1.60 266.37 1.54 268.00 0.00
L 248.00 0.00
C 255.51 -0.30 257.59 8.70 256.98 15.02 C 256.36 21.34 258.15 31.18 249.98 31.98 C 241.80 32.77 233.57 30.81 225.00 32.00 C 216.43 33.19 212.48 27.37 214.00 19.00 C 215.52 10.63 210.48 2.08 221.00 1.00
C 220.96 1.00 221.00 0.00 221.00 0.00
L 201.00 0.00
C 207.26 0.33 209.99 4.82 210.00 11.00
C 206.00 11.00 202.00 11.00 198.00 11.00
C 194.14 -0.38 177.84 3.11 178.00 16.00 C 178.16 28.89 194.18 33.44 198.00 21.00
C 202.00 21.00 206.00 21.00 210.00 21.00
C 208.99 23.79 208.82 26.89 209.00 30.00
C 198.45 32.17 184.20 33.75 173.00 32.00 C 161.80 30.25 167.71 8.15 169.00 1.00
C 170.67 1.00 172.33 1.00 174.00 1.00
C 173.96 1.00 174.00 0.00 174.00 0.00
L 154.00 0.00
C 163.88 -0.49 162.17 10.68 162.00 18.00
C 152.00 18.00 142.00 18.00 132.00 18.00
C 129.74 33.06 156.77 30.54 161.00 21.00
C 165.11 37.54 139.34 31.28 128.00 32.00 C 116.66 32.72 115.65 1.78 127.00 1.00
C 126.99 1.00 127.00 0.00 127.00 0.00
L 0.00 0.00
L 0.00 47.00
M 105.00 2.00 
C 93.22 12.27 88.45 29.64 70.00 29.00 C 51.55 28.36 26.09 29.48 7.00 29.00
C 26.06 -6.36 70.64 2.93 105.00 2.00
M 109.00 7.00 
C 107.75 28.21 111.87 56.77 106.22 76.22 C 100.58 95.67 84.43 102.82 68.00 110.00
C 66.10 94.84 70.53 76.88 68.00 62.00 C 65.47 47.12 75.23 39.60 84.75 30.75 C 94.27 21.90 99.50 15.07 109.00 7.00
M 170.00 43.00 
C 170.98 55.37 168.69 65.40 170.00 78.00 C 171.31 90.60 156.89 92.00 147.00 91.00 C 137.11 90.00 122.20 93.36 119.00 83.00
C 131.37 80.81 143.41 88.56 155.00 83.00
C 146.06 78.57 122.76 87.05 120.01 74.99 C 117.25 62.94 116.20 44.16 131.00 44.00 C 145.81 43.85 155.76 43.23 170.00 43.00
M 226.00 82.00 
C 217.87 81.97 210.97 80.99 203.99 81.99 C 197.01 82.99 184.08 81.84 178.33 80.67 C 172.58 79.50 172.35 61.76 177.26 59.26 C 182.16 56.75 193.42 55.39 201.00 57.00 C 208.58 58.61 217.52 50.39 206.78 48.22 C 196.04 46.05 191.09 47.74 188.00 56.00
C 183.67 56.00 179.33 56.00 175.00 56.00
C 175.00 52.67 175.00 49.33 175.00 46.00
C 189.75 43.36 201.38 42.09 217.00 44.00 C 232.62 45.91 223.84 69.93 226.00 82.00
M 282.00 57.00 
C 277.80 59.10 272.61 57.50 268.00 58.00
C 272.77 45.11 239.07 45.61 245.33 57.67 C 251.59 69.73 273.26 51.49 280.25 64.75 C 287.23 78.02 268.97 84.05 258.00 82.00 C 247.03 79.95 226.86 85.01 231.00 67.00
C 235.33 67.00 239.67 67.00 244.00 67.00
C 241.03 76.34 261.79 80.36 265.74 73.74 C 269.69 67.13 251.93 61.95 244.00 65.00 C 236.07 68.05 224.10 52.74 232.31 46.31 C 240.51 39.87 252.71 44.39 262.00 43.00 C 271.29 41.61 283.77 45.81 282.00 57.00
M 300.00 80.00 
C 300.00 83.67 300.00 87.33 300.00 91.00
C 295.67 91.00 291.33 91.00 287.00 91.00
C 287.00 75.00 287.00 59.00 287.00 43.00
C 297.97 42.29 304.96 45.90 316.00 43.00 C 327.04 40.10 338.30 45.56 337.00 56.00 C 335.70 66.44 341.39 77.33 330.93 80.93 C 320.46 84.52 310.09 80.96 300.00 80.00
M 393.00 46.00 
C 393.00 58.00 393.00 70.00 393.00 82.00
C 385.08 81.64 377.82 81.06 370.99 81.99 C 364.16 82.93 351.46 82.19 346.00 81.00 C 340.54 79.81 340.21 62.53 344.77 59.77 C 349.33 57.02 360.34 55.17 368.00 57.00 C 375.66 58.83 384.69 50.95 374.33 48.67 C 363.97 46.40 357.77 46.93 356.00 56.00
C 351.67 56.00 347.33 56.00 343.00 56.00
C 343.00 52.67 343.00 49.33 343.00 46.00
C 359.11 42.66 376.98 41.55 393.00 46.00
M 449.00 57.00 
C 444.33 57.00 439.67 57.00 435.00 57.00
C 436.61 47.98 418.59 44.98 413.75 51.75 C 408.91 58.52 413.74 73.79 412.00 82.00
C 407.33 82.00 402.67 82.00 398.00 82.00
C 398.00 69.00 398.00 56.00 398.00 43.00
C 408.45 44.18 417.74 43.05 428.00 43.00 C 438.26 42.95 451.09 43.84 449.00 57.00
M 213.00 109.00 
C 211.12 110.33 207.56 110.35 205.00 110.00
C 201.79 109.56 198.91 109.50 200.00 105.00
C 198.84 107.83 198.78 111.47 194.00 110.00
C 194.00 105.00 194.00 100.00 194.00 95.00
C 199.95 93.07 199.21 99.03 199.00 103.00
C 199.97 91.59 224.04 99.44 213.00 109.00
M 254.00 109.00 
C 251.07 112.00 249.62 107.62 248.00 108.00
C 247.78 108.96 246.87 109.72 246.00 110.00
C 244.11 110.61 237.88 110.64 236.00 110.00
C 231.96 108.64 232.01 100.57 234.26 98.26 C 236.50 95.94 248.09 98.02 248.00 100.00
C 248.94 98.66 248.45 95.82 250.00 95.00
C 251.04 94.45 252.89 95.42 254.00 95.00
C 254.00 99.67 254.00 104.33 254.00 109.00
M 334.00 98.00 
C 337.51 98.57 342.31 96.77 345.00 99.00
C 342.24 101.16 337.51 99.45 334.00 100.00
C 334.17 102.52 333.33 105.19 335.00 107.00
C 335.24 107.26 335.74 107.89 336.00 108.00
C 336.42 108.18 337.53 107.88 338.00 108.00
C 339.12 107.29 340.35 106.63 340.00 105.00
C 344.75 102.51 347.25 109.80 342.00 110.00
C 340.22 110.55 336.87 110.16 335.00 110.00
C 327.58 109.38 329.81 105.60 328.00 100.00
C 327.12 103.14 328.14 105.58 328.00 109.00
C 323.45 109.67 315.21 111.99 313.00 107.00
C 312.75 107.70 311.82 109.54 311.00 110.00
C 307.06 112.22 299.96 108.67 296.00 109.00
C 296.00 105.33 296.00 101.67 296.00 98.00
C 302.87 96.24 298.00 112.35 307.00 106.00
C 308.25 104.19 306.06 100.02 307.00 98.00
C 308.33 98.00 309.67 98.00 311.00 98.00
C 311.10 97.97 312.96 99.91 313.00 100.00
C 312.73 99.96 317.62 96.56 320.00 98.00 C 322.38 99.44 327.25 97.20 329.00 97.00
C 329.42 96.86 331.59 93.07 334.00 95.00
C 334.00 96.00 334.00 97.00 334.00 98.00
M 384.00 98.00 
C 387.51 98.57 392.32 96.77 395.00 99.00
C 392.24 101.16 387.51 99.45 384.00 100.00
C 384.17 102.52 383.33 105.19 385.00 107.00
C 385.24 107.26 385.74 107.89 386.00 108.00
C 386.42 108.18 387.53 107.88 388.00 108.00
C 389.12 107.29 390.35 106.63 390.00 105.00
C 394.75 102.51 397.25 109.80 392.00 110.00
C 390.22 110.55 386.87 110.16 385.00 110.00
C 378.45 109.46 378.41 106.36 379.00 100.00
C 376.87 102.43 378.53 106.82 378.00 110.00
C 370.34 111.32 377.23 103.90 372.23 100.77 C 367.23 97.64 365.78 105.90 367.00 110.00
C 359.23 112.07 362.76 102.44 362.00 98.00
C 367.50 97.35 374.33 99.32 379.00 97.00
C 379.42 96.86 381.59 93.07 384.00 95.00
C 384.00 96.00 384.00 97.00 384.00 98.00
M 417.00 98.00 
C 424.16 96.69 429.30 98.19 428.00 106.00 C 426.70 113.81 417.71 108.35 412.00 110.00
C 412.00 105.00 412.00 100.00 412.00 95.00
C 414.35 94.84 417.92 94.45 417.00 98.00
M 434.00 95.00 
C 434.00 100.00 434.00 105.00 434.00 110.00
C 426.33 112.75 426.23 92.27 434.00 95.00
M 126.00 108.00 
C 126.31 107.76 127.00 108.00 127.00 108.00
C 131.40 107.68 138.99 103.88 137.00 98.00
C 146.47 94.02 158.82 102.55 149.00 110.00
C 147.29 110.53 143.79 110.22 142.00 110.00
C 139.43 109.68 136.07 109.97 137.00 106.00
C 135.65 107.04 134.99 109.49 133.00 110.00
C 130.07 110.96 121.42 110.88 120.00 108.00
C 116.38 100.67 122.09 97.93 128.00 98.00 C 133.91 98.07 140.44 101.91 131.00 103.00
C 129.35 95.61 121.36 103.60 126.00 108.00
M 169.00 110.00 
C 160.03 112.23 167.57 104.33 163.22 100.78 C 158.87 97.23 156.27 106.23 158.00 110.00
C 150.23 112.07 153.76 102.44 153.00 98.00
C 162.60 96.56 172.88 97.54 169.00 110.00
M 193.00 103.00 
C 189.15 104.83 186.94 98.08 183.33 100.33 C 179.72 102.59 183.04 109.20 187.00 108.00
C 187.98 105.50 190.46 104.55 193.00 105.00
C 192.20 116.02 169.84 109.53 178.00 98.00
C 182.92 99.15 194.08 94.57 193.00 103.00
M 232.00 110.00 
C 223.03 112.23 230.57 104.33 226.22 100.78 C 221.87 97.23 219.27 106.23 221.00 110.00
C 213.23 112.07 216.76 102.44 216.00 98.00
C 225.60 96.56 235.88 97.54 232.00 110.00
M 258.00 98.00 
C 259.24 97.78 260.74 98.00 262.00 98.00
C 271.12 98.00 272.14 100.76 271.00 110.00
C 267.63 108.87 258.21 111.85 255.78 109.22 C 253.35 106.59 254.77 98.28 258.00 98.00
M 295.00 102.00 
C 295.03 102.26 295.04 104.62 295.00 105.00
C 294.15 112.86 284.38 109.37 279.00 109.00
C 279.01 107.39 278.41 104.57 281.00 105.00
C 280.78 104.86 281.00 104.00 281.00 104.00
C 273.09 101.21 293.72 91.36 295.00 102.00
M 361.00 104.00 
C 360.87 110.19 357.07 110.91 351.00 110.00
C 349.19 109.73 347.77 109.47 346.00 109.00
C 339.20 96.86 362.08 92.57 361.00 104.00
M 406.00 110.00 
C 396.40 111.16 395.25 107.23 396.00 99.00
C 399.54 96.98 404.05 98.45 408.00 98.00
C 408.95 97.79 410.04 98.17 411.00 98.00
C 411.00 102.00 411.00 106.00 411.00 110.00
C 409.33 110.00 407.67 110.00 406.00 110.00 Z"/>
</g>
<g fill="#FFFFFF" fill-opacity="0.19" stroke="None">
<path d="
M 127.00 1.00 
C 128.59 0.78 131.21 1.82 132.00 0.00
L 127.00 0.00
C 127.00 0.00 126.99 1.00 127.00 1.00 Z"/>
</g>
<g fill="#FDFDFD" fill-opacity="0.84" stroke="None">
<path d="
M 127.00 1.00 
C 115.65 1.78 116.66 32.72 128.00 32.00 C 139.34 31.28 165.11 37.54 161.00 21.00
C 156.77 30.54 129.74 33.06 132.00 18.00
C 142.00 18.00 152.00 18.00 162.00 18.00
C 162.17 10.68 163.88 -0.49 154.00 0.00
L 132.00 0.00
C 131.21 1.82 128.59 0.78 127.00 1.00
M 151.00 13.00 
C 144.67 13.00 138.33 13.00 132.00 13.00
C 128.90 1.12 153.81 1.10 151.00 13.00 Z"/>
</g>
<g fill="#FFFFFF" fill-opacity="0.20" stroke="None">
<path d="
M 174.00 1.00 
C 175.59 0.84 178.21 1.78 179.00 0.00
L 174.00 0.00
C 174.00 0.00 173.96 1.00 174.00 1.00 Z"/>
</g>
<g fill="#FDFDFD" fill-opacity="0.87" stroke="None">
<path d="
M 174.00 1.00 
C 172.33 1.00 170.67 1.00 169.00 1.00
C 167.71 8.15 161.80 30.25 173.00 32.00 C 184.20 33.75 198.45 32.17 209.00 30.00
C 208.82 26.89 208.99 23.79 210.00 21.00
C 206.00 21.00 202.00 21.00 198.00 21.00
C 194.18 33.44 178.16 28.89 178.00 16.00 C 177.84 3.11 194.14 -0.38 198.00 11.00
C 202.00 11.00 206.00 11.00 210.00 11.00
C 209.99 4.82 207.26 0.33 201.00 0.00
L 179.00 0.00
C 178.21 1.78 175.59 0.84 174.00 1.00 Z"/>
</g>
<g fill="#FEFEFE" fill-opacity="0.22" stroke="None">
<path d="
M 221.00 1.00 
C 222.59 0.84 225.21 1.78 226.00 0.00
L 221.00 0.00
C 221.00 0.00 220.96 1.00 221.00 1.00 Z"/>
</g>
<g fill="#FDFDFD" fill-opacity="0.88" stroke="None">
<path d="
M 221.00 1.00 
C 210.48 2.08 215.52 10.63 214.00 19.00 C 212.48 27.37 216.43 33.19 225.00 32.00 C 233.57 30.81 241.80 32.77 249.98 31.98 C 258.15 31.18 256.36 21.34 256.98 15.02 C 257.59 8.70 255.51 -0.30 248.00 0.00
L 226.00 0.00
C 225.21 1.78 222.59 0.84 221.00 1.00
M 237.00 4.00 
C 250.91 5.17 246.80 31.92 233.00 28.00 C 219.20 24.08 222.94 2.82 237.00 4.00 Z"/>
</g>
<g fill="#FDFDFD" fill-opacity="0.85" stroke="None">
<path d="
M 297.00 0.00 
L 277.00 0.00
C 276.26 1.39 272.68 1.65 272.00 0.00
L 268.00 0.00
C 266.37 1.54 263.30 1.60 261.00 2.00
C 261.00 5.00 261.00 8.00 261.00 11.00
C 264.18 11.53 268.57 9.87 271.00 12.00
C 257.48 7.85 256.50 33.46 269.00 32.00 C 281.50 30.54 291.90 32.68 304.00 32.00
C 301.55 21.71 310.15 2.97 297.00 0.00
M 272.00 11.00 
C 270.25 3.88 285.73 -0.52 290.69 5.31 C 295.66 11.14 276.99 12.58 272.00 11.00
M 292.00 16.00 
C 296.31 24.73 280.91 34.12 273.78 26.22 C 266.64 18.32 284.87 12.25 292.00 16.00 Z"/>
</g>
<g fill="#FCFCFC" fill-opacity="0.46" stroke="None">
<path d="
M 277.00 0.00 
L 272.00 0.00
C 272.68 1.65 276.26 1.39 277.00 0.00 Z"/>
</g>
<g fill="#FDFDFD" fill-opacity="0.88" stroke="None">
<path d="
M 350.00 0.00 
L 315.00 0.00
C 314.22 1.94 311.57 0.61 310.00 1.00
C 309.01 8.37 304.22 22.54 309.25 29.75 C 314.29 36.95 331.79 28.20 338.00 33.00
C 328.05 38.33 317.75 30.86 307.00 33.00
C 309.96 41.43 321.88 39.60 330.00 40.00 C 338.12 40.40 351.36 40.64 350.00 30.00 C 348.64 19.36 351.02 10.48 350.00 0.00
M 331.00 4.00 
C 344.91 5.17 340.80 31.86 327.00 28.00 C 313.20 24.14 316.93 2.82 331.00 4.00 Z"/>
</g>
<g fill="#FDFDFD" fill-opacity="0.91" stroke="None">
<path d="
M 390.00 0.00 
L 355.00 0.00
C 355.00 10.67 355.00 21.33 355.00 32.00
C 358.67 32.00 362.33 32.00 366.00 32.00
C 367.28 25.14 363.39 11.50 368.31 6.31 C 373.22 1.11 385.47 4.35 386.00 11.00
C 389.67 11.00 393.33 11.00 397.00 11.00
C 398.27 5.30 395.52 0.21 390.00 0.00 Z"/>
</g>
<g fill="#FDFDFD" fill-opacity="0.88" stroke="None">
<path d="
M 436.00 0.00 
L 434.00 0.00
C 432.97 1.43 428.96 1.69 428.00 0.00
L 409.00 0.00
C 408.22 1.94 405.57 0.61 404.00 1.00
C 402.43 9.84 399.18 17.37 402.08 26.92 C 404.97 36.48 418.60 29.58 427.00 32.00 C 435.40 34.42 446.72 29.68 444.67 19.67 C 442.62 9.66 447.23 2.05 436.00 0.00
M 425.00 4.00 
C 438.91 5.17 434.80 31.86 421.00 28.00 C 407.20 24.14 410.93 2.82 425.00 4.00 Z"/>
</g>
<g fill="#FDFDFD" fill-opacity="0.49" stroke="None">
<path d="
M 434.00 0.00 
L 428.00 0.00
C 428.96 1.69 432.97 1.43 434.00 0.00 Z"/>
</g>
<g fill="#30710E" fill-opacity="0.93" stroke="None">
<path d="
M 105.00 2.00 
C 70.64 2.93 26.06 -6.36 7.00 29.00
C 26.09 29.48 51.55 28.36 70.00 29.00 C 88.45 29.64 93.22 12.27 105.00 2.00 Z"/>
</g>
<g fill="#000000" fill-opacity="0.00" stroke="None">
<path d="
M 151.00 13.00 
C 153.81 1.10 128.90 1.12 132.00 13.00
C 138.33 13.00 144.67 13.00 151.00 13.00 Z"/>
</g>
<g fill="#000000" fill-opacity="0.00" stroke="None">
<path d="
M 237.00 4.00 
C 222.94 2.82 219.20 24.08 233.00 28.00 C 246.80 31.92 250.91 5.17 237.00 4.00 Z"/>
</g>
<g fill="#000000" fill-opacity="0.00" stroke="None">
<path d="
M 272.00 11.00 
C 276.99 12.58 295.66 11.14 290.69 5.31 C 285.73 -0.52 270.25 3.88 272.00 11.00 Z"/>
</g>
<g fill="#000000" fill-opacity="0.00" stroke="None">
<path d="
M 331.00 4.00 
C 316.93 2.82 313.20 24.14 327.00 28.00 C 340.80 31.86 344.91 5.17 331.00 4.00 Z"/>
</g>
<g fill="#000000" fill-opacity="0.00" stroke="None">
<path d="
M 425.00 4.00 
C 410.93 2.82 407.20 24.14 421.00 28.00 C 434.80 31.86 438.91 5.17 425.00 4.00 Z"/>
</g>
<g fill="#00A859" fill-opacity="0.97" stroke="None">
<path d="
M 109.00 7.00 
C 99.50 15.07 94.27 21.90 84.75 30.75 C 75.23 39.60 65.47 47.12 68.00 62.00 C 70.53 76.88 66.10 94.84 68.00 110.00
C 84.43 102.82 100.58 95.67 106.22 76.22 C 111.87 56.77 107.75 28.21 109.00 7.00 Z"/>
</g>
<g fill="#000000" fill-opacity="0.00" stroke="None">
<path d="
M 292.00 16.00 
C 284.87 12.25 266.64 18.32 273.78 26.22 C 280.91 34.12 296.31 24.73 292.00 16.00 Z"/>
</g>
<g fill="#44931D" fill-opacity="0.95" stroke="None">
<path d="
M 0.00 47.00 
L 0.00 66.00
C 13.14 63.12 29.15 69.85 42.00 66.00
C 43.37 65.49 46.69 61.12 48.00 60.00
C 50.86 57.56 53.51 54.91 56.00 52.00
C 58.19 49.44 60.49 47.15 63.00 45.00
C 66.49 41.86 71.43 38.48 73.00 34.00
C 50.00 34.00 27.00 34.00 4.00 34.00
C 2.17 38.14 1.64 43.13 0.00 47.00 Z"/>
</g>
<g fill="#D2D2D4" fill-opacity="0.87" stroke="None">
<path d="
M 170.00 43.00 
C 155.76 43.23 145.81 43.85 131.00 44.00 C 116.20 44.16 117.25 62.94 120.01 74.99 C 122.76 87.05 146.06 78.57 155.00 83.00
C 143.41 88.56 131.37 80.81 119.00 83.00
C 122.20 93.36 137.11 90.00 147.00 91.00 C 156.89 92.00 171.31 90.60 170.00 78.00 C 168.69 65.40 170.98 55.37 170.00 43.00
M 150.00 49.00 
C 164.79 52.06 154.85 85.47 139.78 76.22 C 124.70 66.97 132.30 45.34 150.00 49.00 Z"/>
</g>
<g fill="#D2D3D5" fill-opacity="0.85" stroke="None">
<path d="
M 226.00 82.00 
C 223.84 69.93 232.62 45.91 217.00 44.00 C 201.38 42.09 189.75 43.36 175.00 46.00
C 175.00 49.33 175.00 52.67 175.00 56.00
C 179.33 56.00 183.67 56.00 188.00 56.00
C 191.09 47.74 196.04 46.05 206.78 48.22 C 217.52 50.39 208.58 58.61 201.00 57.00 C 193.42 55.39 182.16 56.75 177.26 59.26 C 172.35 61.76 172.58 79.50 178.33 80.67 C 184.08 81.84 197.01 82.99 203.99 81.99 C 210.97 80.99 217.87 81.97 226.00 82.00
M 212.00 62.00 
C 215.03 72.47 209.10 75.31 201.00 76.00 C 192.90 76.69 185.20 73.22 189.78 65.78 C 194.35 58.33 205.15 65.01 212.00 62.00 Z"/>
</g>
<g fill="#D2D3D5" fill-opacity="0.85" stroke="None">
<path d="
M 282.00 57.00 
C 283.77 45.81 271.29 41.61 262.00 43.00 C 252.71 44.39 240.51 39.87 232.31 46.31 C 224.10 52.74 236.07 68.05 244.00 65.00 C 251.93 61.95 269.69 67.13 265.74 73.74 C 261.79 80.36 241.03 76.34 244.00 67.00
C 239.67 67.00 235.33 67.00 231.00 67.00
C 226.86 85.01 247.03 79.95 258.00 82.00 C 268.97 84.05 287.23 78.02 280.25 64.75 C 273.26 51.49 251.59 69.73 245.33 57.67 C 239.07 45.61 272.77 45.11 268.00 58.00
C 272.61 57.50 277.80 59.10 282.00 57.00 Z"/>
</g>
<g fill="#D1D2D4" fill-opacity="0.90" stroke="None">
<path d="
M 300.00 80.00 
C 310.09 80.96 320.46 84.52 330.93 80.93 C 341.39 77.33 335.70 66.44 337.00 56.00 C 338.30 45.56 327.04 40.10 316.00 43.00 C 304.96 45.90 297.97 42.29 287.00 43.00
C 287.00 59.00 287.00 75.00 287.00 91.00
C 291.33 91.00 295.67 91.00 300.00 91.00
C 300.00 87.33 300.00 83.67 300.00 80.00
M 300.00 74.00 
C 300.83 63.26 295.68 50.70 309.00 49.00 C 322.33 47.30 325.89 56.11 324.00 68.00 C 322.11 79.89 307.63 75.34 300.00 74.00 Z"/>
</g>
<g fill="#D1D2D4" fill-opacity="0.88" stroke="None">
<path d="
M 393.00 46.00 
C 376.98 41.55 359.11 42.66 343.00 46.00
C 343.00 49.33 343.00 52.67 343.00 56.00
C 347.33 56.00 351.67 56.00 356.00 56.00
C 357.77 46.93 363.97 46.40 374.33 48.67 C 384.69 50.95 375.66 58.83 368.00 57.00 C 360.34 55.17 349.33 57.02 344.77 59.77 C 340.21 62.53 340.54 79.81 346.00 81.00 C 351.46 82.19 364.16 82.93 370.99 81.99 C 377.82 81.06 385.08 81.64 393.00 82.00
C 393.00 70.00 393.00 58.00 393.00 46.00
M 380.00 62.00 
C 383.25 72.86 376.82 74.82 369.00 76.00 C 361.18 77.18 352.19 72.64 357.31 65.31 C 362.42 57.97 373.42 65.42 380.00 62.00 Z"/>
</g>
<g fill="#D1D2D5" fill-opacity="0.85" stroke="None">
<path d="
M 449.00 57.00 
C 451.09 43.84 438.26 42.95 428.00 43.00 C 417.74 43.05 408.45 44.18 398.00 43.00
C 398.00 56.00 398.00 69.00 398.00 82.00
C 402.67 82.00 407.33 82.00 412.00 82.00
C 413.74 73.79 408.91 58.52 413.75 51.75 C 418.59 44.98 436.61 47.98 435.00 57.00
C 439.67 57.00 444.33 57.00 449.00 57.00 Z"/>
</g>
<g fill="#7F8000" fill-opacity="0.01" stroke="None">
<path d="
M 56.00 52.00 
C 58.21 49.79 60.74 47.26 63.00 45.00
C 60.49 47.15 58.19 49.44 56.00 52.00 Z"/>
</g>
<g fill="#000000" fill-opacity="0.00" stroke="None">
<path d="
M 150.00 49.00 
C 132.30 45.34 124.70 66.97 139.78 76.22 C 154.85 85.47 164.79 52.06 150.00 49.00 Z"/>
</g>
<g fill="#000000" fill-opacity="0.00" stroke="None">
<path d="
M 300.00 74.00 
C 307.63 75.34 322.11 79.89 324.00 68.00 C 325.89 56.11 322.33 47.30 309.00 49.00 C 295.68 50.70 300.83 63.26 300.00 74.00 Z"/>
</g>
<g fill="#7CD22E" fill-opacity="0.95" stroke="None">
<path d="
M 61.00 54.00 
C 62.23 54.09 55.48 61.28 54.00 62.00
C 53.60 62.20 53.00 62.00 53.00 62.00
C 43.14 66.82 37.09 79.50 28.25 86.25 C 19.41 92.99 11.80 103.72 4.00 111.00
L 63.00 111.00
C 63.03 104.83 62.97 95.89 63.00 90.00 C 63.03 84.11 62.93 74.89 63.00 70.00 C 63.07 65.11 63.73 52.60 61.00 54.00 Z"/>
</g>
<g fill="#8BCE28" fill-opacity="0.49" stroke="None">
<path d="
M 59.00 55.00 
C 57.53 56.86 55.51 59.84 54.00 62.00
C 55.48 61.28 62.23 54.09 61.00 54.00
C 60.36 54.33 59.58 54.51 59.00 55.00 Z"/>
</g>
<g fill="#8FE02A" fill-opacity="0.01" stroke="None">
<path d="
M 53.00 62.00 
C 53.00 62.00 53.60 62.20 54.00 62.00
C 55.51 59.84 57.53 56.86 59.00 55.00
C 56.90 56.79 55.12 59.88 53.00 62.00 Z"/>
</g>
<g fill="#00FF00" fill-opacity="0.00" stroke="None">
<path d="
M 42.00 66.00 
C 44.55 65.24 46.24 61.76 48.00 60.00
C 46.69 61.12 43.37 65.49 42.00 66.00 Z"/>
</g>
<g fill="#000000" fill-opacity="0.00" stroke="None">
<path d="
M 212.00 62.00 
C 205.15 65.01 194.35 58.33 189.78 65.78 C 185.20 73.22 192.90 76.69 201.00 76.00 C 209.10 75.31 215.03 72.47 212.00 62.00 Z"/>
</g>
<g fill="#000000" fill-opacity="0.00" stroke="None">
<path d="
M 380.00 62.00 
C 373.42 65.42 362.42 57.97 357.31 65.31 C 352.19 72.64 361.18 77.18 369.00 76.00 C 376.82 74.82 383.25 72.86 380.00 62.00 Z"/>
</g>
<g fill="#4E980E" fill-opacity="0.97" stroke="None">
<path d="
M 0.00 107.00 
C 11.78 96.11 24.55 83.23 36.00 71.00
C 24.00 71.00 12.00 71.00 0.00 71.00
L 0.00 107.00 Z"/>
</g>
<g fill="#97999B" fill-opacity="0.67" stroke="None">
<path d="
M 205.00 110.00 
C 205.25 109.88 206.05 108.30 206.00 108.00
C 205.77 106.73 204.11 106.30 204.00 105.00
C 207.33 105.00 210.67 105.00 214.00 105.00
C 214.82 108.15 210.51 105.83 210.00 108.00
C 210.83 108.17 211.50 109.29 213.00 109.00
C 224.04 99.44 199.97 91.59 199.00 103.00
C 199.21 99.03 199.95 93.07 194.00 95.00
C 194.00 100.00 194.00 105.00 194.00 110.00
C 198.78 111.47 198.84 107.83 200.00 105.00
C 198.91 109.50 201.79 109.56 205.00 110.00
M 211.00 102.00 
C 209.67 103.47 205.26 103.71 204.00 102.00
C 205.23 98.56 209.15 100.26 211.00 102.00 Z"/>
</g>
<g fill="#94949A" fill-opacity="0.09" stroke="None">
<path d="
M 248.00 100.00 
C 246.75 101.77 246.99 102.19 244.00 102.00
C 245.42 102.45 247.29 103.79 249.00 102.00
C 248.89 103.00 249.47 104.73 248.00 105.00
C 247.78 105.95 248.22 107.05 248.00 108.00
C 249.62 107.62 251.07 112.00 254.00 109.00
C 254.00 109.04 253.00 109.00 253.00 109.00
C 252.01 109.12 250.99 108.91 250.00 109.00
C 250.00 105.67 250.00 102.33 250.00 99.00
C 250.00 97.67 250.00 96.33 250.00 95.00
C 248.45 95.82 248.94 98.66 248.00 100.00 Z"/>
</g>
<g fill="#969898" fill-opacity="0.58" stroke="None">
<path d="
M 250.00 99.00 
C 250.18 99.38 252.66 98.69 253.00 99.00
C 253.00 102.33 253.00 105.67 253.00 109.00
C 253.00 109.00 254.00 109.04 254.00 109.00
C 254.00 104.33 254.00 99.67 254.00 95.00
C 252.89 95.42 251.04 94.45 250.00 95.00
C 250.00 96.33 250.00 97.67 250.00 99.00 Z"/>
</g>
<g fill="#949898" fill-opacity="0.28" stroke="None">
<path d="
M 329.00 97.00 
C 332.23 96.62 331.50 97.59 334.00 98.00
C 334.00 97.00 334.00 96.00 334.00 95.00
C 331.59 93.07 329.42 96.86 329.00 97.00 Z"/>
</g>
<g fill="#949898" fill-opacity="0.28" stroke="None">
<path d="
M 379.00 97.00 
C 382.23 96.62 381.50 97.59 384.00 98.00
C 384.00 97.00 384.00 96.00 384.00 95.00
C 381.59 93.07 379.42 96.86 379.00 97.00 Z"/>
</g>
<g fill="#969899" fill-opacity="0.69" stroke="None">
<path d="
M 417.00 98.00 
C 417.92 94.45 414.35 94.84 412.00 95.00
C 412.00 100.00 412.00 105.00 412.00 110.00
C 417.71 108.35 426.70 113.81 428.00 106.00 C 429.30 98.19 424.16 96.69 417.00 98.00
M 417.00 107.00 
C 414.97 91.57 432.32 108.75 417.00 107.00 Z"/>
</g>
<g fill="#96989A" fill-opacity="0.67" stroke="None">
<path d="
M 434.00 95.00 
C 426.23 92.27 426.33 112.75 434.00 110.00
C 434.00 105.00 434.00 100.00 434.00 95.00 Z"/>
</g>
<g fill="#96989A" fill-opacity="0.70" stroke="None">
<path d="
M 329.00 97.00 
C 327.25 97.20 322.38 99.44 320.00 98.00 C 317.62 96.56 312.73 99.96 313.00 100.00
C 313.79 101.85 313.63 105.20 313.00 107.00
C 315.21 111.99 323.45 109.67 328.00 109.00
C 328.14 105.58 327.12 103.14 328.00 100.00
C 329.81 105.60 327.58 109.38 335.00 110.00
C 335.26 109.88 336.04 108.30 336.00 108.00
C 335.74 107.89 335.24 107.26 335.00 107.00
C 332.46 107.66 331.86 101.50 334.00 100.00
C 337.51 99.45 342.24 101.16 345.00 99.00
C 342.31 96.77 337.51 98.57 334.00 98.00
C 331.50 97.59 332.23 96.62 329.00 97.00
M 324.00 102.00 
C 322.54 103.67 317.78 103.73 317.00 101.00
C 319.31 98.94 322.07 100.39 324.00 102.00
M 323.00 106.00 
C 316.89 109.94 316.07 102.22 323.00 106.00 Z"/>
</g>
<g fill="#96989A" fill-opacity="0.74" stroke="None">
<path d="
M 379.00 97.00 
C 374.33 99.32 367.50 97.35 362.00 98.00
C 362.76 102.44 359.23 112.07 367.00 110.00
C 365.78 105.90 367.23 97.64 372.23 100.77 C 377.23 103.90 370.34 111.32 378.00 110.00
C 378.53 106.82 376.87 102.43 379.00 100.00
C 378.41 106.36 378.45 109.46 385.00 110.00
C 385.26 109.88 386.04 108.30 386.00 108.00
C 385.74 107.89 385.24 107.26 385.00 107.00
C 382.46 107.66 381.86 101.50 384.00 100.00
C 387.51 99.45 392.24 101.16 395.00 99.00
C 392.32 96.77 387.51 98.57 384.00 98.00
C 381.50 97.59 382.23 96.62 379.00 97.00 Z"/>
</g>
<g fill="#999B9C" fill-opacity="0.67" stroke="None">
<path d="
M 120.00 108.00 
C 121.35 109.93 124.80 108.94 126.00 108.00
C 121.36 103.60 129.35 95.61 131.00 103.00
C 140.44 101.91 133.91 98.07 128.00 98.00 C 122.09 97.93 116.38 100.67 120.00 108.00 Z"/>
</g>
<g fill="#959799" fill-opacity="0.72" stroke="None">
<path d="
M 127.00 108.00 
C 127.78 108.37 132.46 110.12 133.00 110.00
C 134.99 109.49 135.65 107.04 137.00 106.00
C 136.07 109.97 139.43 109.68 142.00 110.00
C 142.41 109.80 142.73 108.13 143.00 108.00
C 142.72 105.21 138.77 100.80 144.03 100.03 C 149.28 99.26 148.35 106.90 146.00 108.00
C 146.37 108.07 148.73 109.99 149.00 110.00
C 158.82 102.55 146.47 94.02 137.00 98.00
C 138.99 103.88 131.40 107.68 127.00 108.00 Z"/>
</g>
<g fill="#969899" fill-opacity="0.68" stroke="None">
<path d="
M 169.00 110.00 
C 172.88 97.54 162.60 96.56 153.00 98.00
C 153.76 102.44 150.23 112.07 158.00 110.00
C 156.27 106.23 158.87 97.23 163.22 100.78 C 167.57 104.33 160.03 112.23 169.00 110.00 Z"/>
</g>
<g fill="#959799" fill-opacity="0.64" stroke="None">
<path d="
M 193.00 103.00 
C 194.08 94.57 182.92 99.15 178.00 98.00
C 169.84 109.53 192.20 116.02 193.00 105.00
C 190.46 104.55 187.98 105.50 187.00 108.00
C 183.04 109.20 179.72 102.59 183.33 100.33 C 186.94 98.08 189.15 104.83 193.00 103.00 Z"/>
</g>
<g fill="#959899" fill-opacity="0.68" stroke="None">
<path d="
M 232.00 110.00 
C 235.88 97.54 225.60 96.56 216.00 98.00
C 216.76 102.44 213.23 112.07 221.00 110.00
C 219.27 106.23 221.87 97.23 226.22 100.78 C 230.57 104.33 223.03 112.23 232.00 110.00 Z"/>
</g>
<g fill="#959799" fill-opacity="0.73" stroke="None">
<path d="
M 236.00 110.00 
C 236.57 110.05 239.40 108.16 240.00 108.00
C 237.53 107.03 236.82 104.97 237.94 101.92 C 239.05 98.86 242.51 101.53 244.00 102.00
C 246.99 102.19 246.75 101.77 248.00 100.00
C 248.09 98.02 236.50 95.94 234.26 98.26 C 232.01 100.57 231.96 108.64 236.00 110.00 Z"/>
</g>
<g fill="#969799" fill-opacity="0.66" stroke="None">
<path d="
M 262.00 98.00 
C 262.65 98.13 264.49 99.33 265.00 100.00
C 266.81 102.37 265.32 100.76 262.99 101.99 C 260.65 103.22 260.37 99.46 261.00 100.00
C 260.61 99.92 258.29 98.01 258.00 98.00
C 254.77 98.28 253.35 106.59 255.78 109.22 C 258.21 111.85 267.63 108.87 271.00 110.00
C 272.14 100.76 271.12 98.00 262.00 98.00
M 266.00 104.00 
C 267.14 108.01 262.36 106.85 260.00 107.00
C 259.63 103.56 263.70 103.89 266.00 104.00 Z"/>
</g>
<g fill="#959799" fill-opacity="0.49" stroke="None">
<path d="
M 261.00 100.00 
C 262.22 100.25 263.84 99.58 265.00 100.00
C 264.49 99.33 262.65 98.13 262.00 98.00
C 260.74 98.00 259.24 97.78 258.00 98.00
C 258.29 98.01 260.61 99.92 261.00 100.00 Z"/>
</g>
<g fill="#959799" fill-opacity="0.69" stroke="None">
<path d="
M 281.00 104.00 
C 282.51 103.82 284.03 103.20 285.00 103.00
C 284.93 103.06 287.05 96.41 290.00 102.00
C 290.26 101.75 291.00 102.00 291.00 102.00
C 291.90 102.00 294.24 101.58 295.00 102.00
C 293.72 91.36 273.09 101.21 281.00 104.00 Z"/>
</g>
<g fill="#959799" fill-opacity="0.79" stroke="None">
<path d="
M 311.00 110.00 
C 311.00 106.33 311.00 102.67 311.00 99.00
C 310.00 98.95 309.00 99.04 308.00 99.00
C 307.48 101.19 309.14 104.62 307.00 106.00
C 298.00 112.35 302.87 96.24 296.00 98.00
C 296.00 101.67 296.00 105.33 296.00 109.00
C 299.96 108.67 307.06 112.22 311.00 110.00 Z"/>
</g>
<g fill="#969899" fill-opacity="0.61" stroke="None">
<path d="
M 307.00 106.00 
C 309.14 104.62 307.48 101.19 308.00 99.00
C 309.00 99.04 310.00 98.95 311.00 99.00
C 311.00 98.50 311.00 98.00 311.00 98.00
C 309.67 98.00 308.33 98.00 307.00 98.00
C 306.06 100.02 308.25 104.19 307.00 106.00 Z"/>
</g>
<g fill="#777777" fill-opacity="0.07" stroke="None">
<path d="
M 311.00 99.00 
C 311.00 102.67 311.00 106.33 311.00 110.00
C 311.82 109.54 312.75 107.70 313.00 107.00
C 313.63 105.20 313.79 101.85 313.00 100.00
C 312.96 99.91 311.10 97.97 311.00 98.00
C 311.00 98.00 311.00 98.50 311.00 99.00 Z"/>
</g>
<g fill="#959799" fill-opacity="0.75" stroke="None">
<path d="
M 351.00 110.00 
C 351.32 109.86 351.97 108.33 352.00 108.00
C 352.00 107.96 351.01 105.01 351.00 105.00
C 350.65 104.95 350.00 104.34 350.00 104.00
C 350.00 103.67 350.65 103.08 351.00 103.00
C 351.91 99.65 357.06 98.50 357.00 103.00
C 356.99 103.50 357.00 104.00 357.00 104.00
C 358.33 104.00 359.67 104.00 361.00 104.00
C 362.08 92.57 339.20 96.86 346.00 109.00
C 347.77 109.47 349.19 109.73 351.00 110.00 Z"/>
</g>
<g fill="#96989A" fill-opacity="0.65" stroke="None">
<path d="
M 406.00 110.00 
C 409.49 108.08 406.28 104.07 406.00 102.00
C 404.45 102.83 401.66 101.37 400.00 102.00
C 400.77 99.29 403.89 100.14 406.00 100.00
C 406.35 99.87 407.74 98.06 408.00 98.00
C 404.05 98.45 399.54 96.98 396.00 99.00
C 395.25 107.23 396.40 111.16 406.00 110.00
M 407.00 104.00 
C 408.14 108.01 403.36 106.85 401.00 107.00
C 399.86 102.98 404.64 104.15 407.00 104.00 Z"/>
</g>
<g fill="#959799" fill-opacity="0.84" stroke="None">
<path d="
M 406.00 100.00 
C 406.51 98.46 406.18 103.32 406.00 102.00
C 406.28 104.07 409.49 108.08 406.00 110.00
C 407.67 110.00 409.33 110.00 411.00 110.00
C 411.00 106.00 411.00 102.00 411.00 98.00
C 410.04 98.17 408.95 97.79 408.00 98.00
C 407.74 98.06 406.35 99.87 406.00 100.00 Z"/>
</g>
<g fill="#97999B" fill-opacity="0.72" stroke="None">
<path d="
M 440.00 110.00 
C 440.40 109.89 441.69 108.08 442.00 108.00
C 442.03 107.85 438.71 106.18 440.00 105.00
C 442.84 105.59 446.98 103.78 449.00 106.00
C 449.37 105.78 450.00 106.00 450.00 106.00
L 450.00 99.00
C 441.86 95.60 431.10 97.86 435.00 109.00
C 436.78 109.46 438.17 109.75 440.00 110.00
M 446.00 103.00 
C 435.85 105.56 443.72 95.38 446.00 103.00 Z"/>
</g>
<g fill="#96989A" fill-opacity="1.00" stroke="None">
<path d="
M 253.00 109.00 
C 253.00 105.67 253.00 102.33 253.00 99.00
C 252.66 98.69 250.18 99.38 250.00 99.00
C 250.00 102.33 250.00 105.67 250.00 109.00
C 250.99 108.91 252.01 109.12 253.00 109.00 Z"/>
</g>
<g fill="#000000" fill-opacity="0.00" stroke="None">
<path d="
M 143.00 108.00 
C 143.47 107.78 145.48 107.90 146.00 108.00
C 148.35 106.90 149.28 99.26 144.03 100.03 C 138.77 100.80 142.72 105.21 143.00 108.00 Z"/>
</g>
<g fill="#000000" fill-opacity="0.00" stroke="None">
<path d="
M 211.00 102.00 
C 209.15 100.26 205.23 98.56 204.00 102.00
C 205.26 103.71 209.67 103.47 211.00 102.00 Z"/>
</g>
<g fill="#000000" fill-opacity="0.00" stroke="None">
<path d="
M 240.00 108.00 
C 240.47 107.88 241.53 107.88 242.00 108.00
C 243.59 106.80 246.85 105.99 248.00 105.00
C 249.47 104.73 248.89 103.00 249.00 102.00
C 247.29 103.79 245.42 102.45 244.00 102.00
C 242.51 101.53 239.05 98.86 237.94 101.92 C 236.82 104.97 237.53 107.03 240.00 108.00 Z"/>
</g>
<g fill="#000000" fill-opacity="0.00" stroke="None">
<path d="
M 265.00 100.00 
C 263.84 99.58 262.22 100.25 261.00 100.00
C 260.37 99.46 260.65 103.22 262.99 101.99 C 265.32 100.76 266.81 102.37 265.00 100.00 Z"/>
</g>
<g fill="#000000" fill-opacity="0.00" stroke="None">
<path d="
M 285.00 103.00 
C 287.12 102.57 288.41 103.53 290.00 102.00
C 287.05 96.41 284.93 103.06 285.00 103.00 Z"/>
</g>
<g fill="#000000" fill-opacity="0.00" stroke="None">
<path d="
M 324.00 102.00 
C 322.07 100.39 319.31 98.94 317.00 101.00
C 317.78 103.73 322.54 103.67 324.00 102.00 Z"/>
</g>
<g fill="#959798" fill-opacity="0.31" stroke="None">
<path d="
M 335.00 107.00 
C 333.33 105.19 334.17 102.52 334.00 100.00
C 331.86 101.50 332.46 107.66 335.00 107.00 Z"/>
</g>
<g fill="#000000" fill-opacity="0.00" stroke="None">
<path d="
M 351.00 103.00 
C 352.48 102.65 355.51 102.69 357.00 103.00
C 357.06 98.50 351.91 99.65 351.00 103.00 Z"/>
</g>
<g fill="#959798" fill-opacity="0.31" stroke="None">
<path d="
M 385.00 107.00 
C 383.33 105.19 384.17 102.52 384.00 100.00
C 381.86 101.50 382.46 107.66 385.00 107.00 Z"/>
</g>
<g fill="#000000" fill-opacity="0.00" stroke="None">
<path d="
M 406.00 102.00 
C 406.18 103.32 406.51 98.46 406.00 100.00
C 403.89 100.14 400.77 99.29 400.00 102.00
C 401.66 101.37 404.45 102.83 406.00 102.00 Z"/>
</g>
<g fill="#000000" fill-opacity="0.00" stroke="None">
<path d="
M 417.00 107.00 
C 432.32 108.75 414.97 91.57 417.00 107.00 Z"/>
</g>
<g fill="#000000" fill-opacity="0.00" stroke="None">
<path d="
M 446.00 103.00 
C 443.72 95.38 435.85 105.56 446.00 103.00 Z"/>
</g>
<g fill="#959899" fill-opacity="0.42" stroke="None">
<path d="
M 285.00 103.00 
C 284.03 103.20 282.51 103.82 281.00 104.00
C 281.00 104.00 280.78 104.86 281.00 105.00
C 281.53 105.33 283.27 105.70 284.00 106.00
C 284.11 106.01 288.30 105.17 289.00 105.00
C 289.89 104.78 290.51 103.91 292.00 104.00
C 291.68 103.74 291.23 102.11 291.00 102.00
C 291.00 102.00 290.26 101.75 290.00 102.00
C 288.41 103.53 287.12 102.57 285.00 103.00 Z"/>
</g>
<g fill="#94999B" fill-opacity="0.19" stroke="None">
<path d="
M 292.00 104.00 
C 292.66 104.04 294.54 105.16 295.00 105.00
C 295.04 104.62 295.03 102.26 295.00 102.00
C 294.24 101.58 291.90 102.00 291.00 102.00
C 291.23 102.11 291.68 103.74 292.00 104.00 Z"/>
</g>
<g fill="#959899" fill-opacity="0.91" stroke="None">
<path d="
M 350.00 104.00 
C 351.51 103.27 355.28 104.00 357.00 104.00
C 357.00 104.00 356.99 103.50 357.00 103.00
C 355.51 102.69 352.48 102.65 351.00 103.00
C 350.65 103.08 350.00 103.67 350.00 104.00 Z"/>
</g>
<g fill="#000000" fill-opacity="0.00" stroke="None">
<path d="
M 266.00 104.00 
C 263.70 103.89 259.63 103.56 260.00 107.00
C 262.36 106.85 267.14 108.01 266.00 104.00 Z"/>
</g>
<g fill="#97999B" fill-opacity="0.66" stroke="None">
<path d="
M 289.00 105.00 
C 287.75 106.24 288.15 107.67 284.00 106.00
C 283.27 105.70 281.53 105.33 281.00 105.00
C 278.41 104.57 279.01 107.39 279.00 109.00
C 284.38 109.37 294.15 112.86 295.00 105.00
C 294.54 105.16 292.66 104.04 292.00 104.00
C 290.51 103.91 289.89 104.78 289.00 105.00 Z"/>
</g>
<g fill="#989A9C" fill-opacity="0.47" stroke="None">
<path d="
M 351.00 105.00 
C 353.87 105.41 357.96 103.90 360.00 106.00
C 358.06 107.77 354.82 108.20 352.00 108.00
C 351.97 108.33 351.32 109.86 351.00 110.00
C 357.07 110.91 360.87 110.19 361.00 104.00
C 359.67 104.00 358.33 104.00 357.00 104.00
C 355.28 104.00 351.51 103.27 350.00 104.00
C 350.00 104.34 350.65 104.95 351.00 105.00 Z"/>
</g>
<g fill="#000000" fill-opacity="0.00" stroke="None">
<path d="
M 407.00 104.00 
C 404.64 104.15 399.86 102.98 401.00 107.00
C 403.36 106.85 408.14 108.01 407.00 104.00 Z"/>
</g>
<g fill="#000000" fill-opacity="0.00" stroke="None">
<path d="
M 206.00 108.00 
C 206.61 107.67 209.30 107.86 210.00 108.00
C 210.51 105.83 214.82 108.15 214.00 105.00
C 210.67 105.00 207.33 105.00 204.00 105.00
C 204.11 106.30 205.77 106.73 206.00 108.00 Z"/>
</g>
<g fill="#949698" fill-opacity="0.70" stroke="None">
<path d="
M 242.00 108.00 
C 242.42 108.11 245.78 110.04 246.00 110.00
C 246.87 109.72 247.78 108.96 248.00 108.00
C 248.22 107.05 247.78 105.95 248.00 105.00
C 246.85 105.99 243.59 106.80 242.00 108.00 Z"/>
</g>
<g fill="#000000" fill-opacity="0.00" stroke="None">
<path d="
M 284.00 106.00 
C 288.15 107.67 287.75 106.24 289.00 105.00
C 288.30 105.17 284.11 106.01 284.00 106.00 Z"/>
</g>
<g fill="#000000" fill-opacity="0.00" stroke="None">
<path d="
M 323.00 106.00 
C 316.07 102.22 316.89 109.94 323.00 106.00 Z"/>
</g>
<g fill="#949798" fill-opacity="0.65" stroke="None">
<path d="
M 338.00 108.00 
C 338.52 108.14 341.63 110.03 342.00 110.00
C 347.25 109.80 344.75 102.51 340.00 105.00
C 340.35 106.63 339.12 107.29 338.00 108.00 Z"/>
</g>
<g fill="#000000" fill-opacity="0.00" stroke="None">
<path d="
M 352.00 108.00 
C 354.82 108.20 358.06 107.77 360.00 106.00
C 357.96 103.90 353.87 105.41 351.00 105.00
C 351.01 105.01 352.00 107.96 352.00 108.00 Z"/>
</g>
<g fill="#949798" fill-opacity="0.65" stroke="None">
<path d="
M 388.00 108.00 
C 388.52 108.14 391.63 110.03 392.00 110.00
C 397.25 109.80 394.75 102.51 390.00 105.00
C 390.35 106.63 389.12 107.29 388.00 108.00 Z"/>
</g>
<g fill="#000000" fill-opacity="0.00" stroke="None">
<path d="
M 442.00 108.00 
C 442.91 107.75 444.06 108.13 445.00 108.00
C 446.43 107.80 447.98 106.62 449.00 106.00
C 446.98 103.78 442.84 105.59 440.00 105.00
C 438.71 106.18 442.03 107.85 442.00 108.00 Z"/>
</g>
<g fill="#959799" fill-opacity="0.58" stroke="None">
<path d="
M 445.00 108.00 
C 445.27 108.07 446.85 109.98 447.00 110.00
C 448.10 109.78 448.76 108.63 450.00 109.00
L 450.00 106.00
C 450.00 106.00 449.37 105.78 449.00 106.00
C 447.98 106.62 446.43 107.80 445.00 108.00 Z"/>
</g>
<g fill="#959698" fill-opacity="0.24" stroke="None">
<path d="
M 133.00 110.00 
C 132.46 110.12 127.78 108.37 127.00 108.00
C 127.00 108.00 126.31 107.76 126.00 108.00
C 124.80 108.94 121.35 109.93 120.00 108.00
C 121.42 110.88 130.07 110.96 133.00 110.00 Z"/>
</g>
<g fill="#959899" fill-opacity="0.41" stroke="None">
<path d="
M 142.00 110.00 
C 143.79 110.22 147.29 110.53 149.00 110.00
C 148.73 109.99 146.37 108.07 146.00 108.00
C 145.48 107.90 143.47 107.78 143.00 108.00
C 142.73 108.13 142.41 109.80 142.00 110.00 Z"/>
</g>
<g fill="#969799" fill-opacity="0.41" stroke="None">
<path d="
M 205.00 110.00 
C 207.56 110.35 211.12 110.33 213.00 109.00
C 211.50 109.29 210.83 108.17 210.00 108.00
C 209.30 107.86 206.61 107.67 206.00 108.00
C 206.05 108.30 205.25 109.88 205.00 110.00 Z"/>
</g>
<g fill="#959799" fill-opacity="0.32" stroke="None">
<path d="
M 236.00 110.00 
C 237.88 110.64 244.11 110.61 246.00 110.00
C 245.78 110.04 242.42 108.11 242.00 108.00
C 241.53 107.88 240.47 107.88 240.00 108.00
C 239.40 108.16 236.57 110.05 236.00 110.00 Z"/>
</g>
<g fill="#959799" fill-opacity="0.36" stroke="None">
<path d="
M 335.00 110.00 
C 336.87 110.16 340.22 110.55 342.00 110.00
C 341.63 110.03 338.52 108.14 338.00 108.00
C 337.53 107.88 336.42 108.18 336.00 108.00
C 336.04 108.30 335.26 109.88 335.00 110.00 Z"/>
</g>
<g fill="#959799" fill-opacity="0.36" stroke="None">
<path d="
M 385.00 110.00 
C 386.87 110.16 390.22 110.55 392.00 110.00
C 391.63 110.03 388.52 108.14 388.00 108.00
C 387.53 107.88 386.42 108.18 386.00 108.00
C 386.04 108.30 385.26 109.88 385.00 110.00 Z"/>
</g>
<g fill="#96979A" fill-opacity="0.40" stroke="None">
<path d="
M 440.00 110.00 
C 441.95 110.27 445.07 110.39 447.00 110.00
C 446.85 109.98 445.27 108.07 445.00 108.00
C 444.06 108.13 442.91 107.75 442.00 108.00
C 441.69 108.08 440.40 109.89 440.00 110.00 Z"/>
</g>
</svg>