<?xml version="1.0" encoding="iso-8859-1"?>
<!-- Uploaded to: SVG Repo, www.svgrepo.com, Generator: SVG Repo Mixer Tools -->
<svg fill="#000000" height="800px" width="800px" version="1.1" id="Layer_1" xmlns="http://www.w3.org/2000/svg" xmlns:xlink="http://www.w3.org/1999/xlink" 
	 viewBox="0 0 512.001 512.001" xml:space="preserve">
<g>
	<g>
		<path d="M475.738,182.955c-14.56-22.111-33.516-36.045-54.388-40.304c-1.903-18.757-2.7-58.557,17.501-96.027
			c16.303-5.922,33.74-11.39,52.397-16.268L483.312,0c-46.567,12.173-89.133,28.659-127.057,49.135
			c-9.238-3.03-50.186-15.344-105.501-15.387c-36.3-0.076-71.375,5.258-104.228,15.712C105.343,62.565,67.62,83.836,34.405,112.682
			l-23.535,20.44l30.438,6.725c2.074,0.458,48.242,10.497,107.902,10.497c4.402,0,8.885-0.055,13.423-0.173
			c27.295-0.706,52.847-3.601,76.337-8.623c-3.28,3.785-6.473,7.623-9.571,11.515c-31.51,39.576-45.749,74.774-51.407,92.088
			c-21.53,3.843-41.109,17.933-56.055,40.632c-16.376,24.87-25.395,57.635-25.395,92.258c0,34.623,9.018,67.387,25.394,92.258
			c17.707,26.891,41.916,41.702,68.169,41.702c26.253,0,50.461-14.81,68.169-41.702c16.375-24.87,25.393-57.634,25.393-92.257
			s-9.018-67.388-25.393-92.258c-13.001-19.744-29.508-32.965-47.753-38.604c6.178-16.401,18.96-43.845,43.424-74.572
			c13.956-17.528,32.843-37.355,57.97-57.061c14.383-7.742,27.377-16.738,38.9-26.961c14.248-8.721,29.929-17.184,47.167-25.158
			c-9.994,32.266-9.682,62.299-8.074,80.133c-19.338,5.12-36.857,18.662-50.508,39.394c-16.376,24.87-25.394,57.635-25.394,92.258
			c0,34.623,9.018,67.387,25.394,92.258c17.707,26.891,41.916,41.702,68.169,41.702c26.253,0,50.461-14.81,68.169-41.702
			c16.375-24.87,25.393-57.634,25.393-92.257C501.133,240.59,492.115,207.825,475.738,182.955z M190.106,480.623
			c-14.476-0.001-26.253-11.778-26.253-26.253c0-14.476,11.777-26.253,26.253-26.253c14.476,0,26.253,11.777,26.253,26.253
			C216.359,468.846,204.582,480.623,190.106,480.623z M252.29,378.041c0,19.351-3.452,37.654-9.37,53.298
			c-8.906-20.345-29.223-34.601-52.815-34.601c-23.593,0-43.909,14.256-52.815,34.603c-5.918-15.645-9.371-33.948-9.371-53.299
			c0-55.605,28.478-102.582,62.185-102.582C223.812,275.46,252.29,322.436,252.29,378.041z M294.517,89.174
			c-42.326,21.914-92.34,28.53-132.028,29.613c-30.719,0.843-58.834-1.452-79.508-4.002
			c48.275-32.819,104.168-49.499,166.629-49.657c0.287,0,0.565-0.001,0.85-0.001c27.279,0,50.89,3.325,68.014,6.759
			C310.211,77.429,302.222,83.194,294.517,89.174z M407.57,377.793c-14.476,0-26.253-11.777-26.253-26.253
			c0-14.476,11.777-26.252,26.253-26.252c14.476,0,26.252,11.776,26.252,26.252C433.822,366.016,422.046,377.793,407.57,377.793z
			 M460.384,328.512c-8.905-20.346-29.221-34.602-52.814-34.602c-23.593,0-43.909,14.256-52.815,34.602
			c-5.919-15.645-9.371-33.948-9.371-53.299c0-55.604,28.478-102.581,62.185-102.581s62.184,46.976,62.184,102.581
			C469.755,294.564,466.303,312.867,460.384,328.512z"/>
	</g>
</g>
</svg>